<?xml version="1.0" standalone="no"?>
<!DOCTYPE svg PUBLIC "-//W3C//DTD SVG 20010904//EN"
 "http://www.w3.org/TR/2001/REC-SVG-20010904/DTD/svg10.dtd">
<svg version="1.0" xmlns="http://www.w3.org/2000/svg"
 width="533.000000pt" height="299.000000pt" viewBox="0 0 533.000000 299.000000"
 preserveAspectRatio="xMidYMid meet">
<metadata>
Created by potrace 1.16, written by Peter Selinger 2001-2019
</metadata>
<g transform="translate(0.000000,299.000000) scale(0.100000,-0.100000)"
fill="#000000" stroke="none">
<path d="M385 1446 c-192 -162 -351 -298 -352 -303 -3 -7 438 -436 646 -628
l63 -59 44 46 c24 26 44 51 44 56 0 6 -108 113 -239 238 l-240 229 2440 3
2439 2 0 70 0 70 -2472 2 -2471 3 271 228 c150 125 272 230 272 233 0 8 -82
104 -89 104 -3 -1 -163 -133 -356 -294z"/>
</g>
</svg>
