<svg width="433" height="342" viewBox="0 0 433 342" fill="none" xmlns="http://www.w3.org/2000/svg">
<ellipse cx="216.136" cy="306.235" rx="216.136" ry="35.2349" fill="#DBDEE8"/>
<path d="M376.805 300.902C376.805 277.277 372.151 253.883 363.11 232.057C354.069 210.23 340.818 190.398 324.112 173.692C307.407 156.987 287.575 143.735 265.748 134.694C243.921 125.653 220.527 121 196.902 121C173.277 121 149.883 125.653 128.057 134.694C106.23 143.735 86.3976 156.987 69.6922 173.692C52.9867 190.398 39.7352 210.23 30.6942 232.057C21.6533 253.883 17 277.277 17 300.902L196.902 300.902H376.805Z" fill="#E8F0FF"/>
<path d="M274.9 259.71C289.69 234.55 314.83 181.52 297.09 170.66C274.9 157.08 252.72 229.08 274.9 259.71Z" fill="#5E8D93"/>
<path d="M272.32 282.76C295.72 265.24 339.57 225.96 327.75 209C312.97 187.82 264.3 245.79 272.32 282.76Z" fill="#5E8D93"/>
<path d="M284.04 249C283.57 247.39 284.84 240.12 292.59 223.08C300.26 206.22 301.89 187.42 301.68 179.83L302.68 179.8C302.89 187.47 301.25 206.47 293.5 223.49C285.57 240.92 284.67 247.61 285 248.71L284.04 249Z" fill="black"/>
<path d="M225.97 199.18C225.97 199.18 305.32 256.08 303.77 267C302.21 277.92 299.1 296.64 264.87 293.52C230.64 290.4 93.71 293.52 93.71 293.52L99.93 279.48L212.77 262.65L202.77 200.65L225.97 199.18Z" fill="#E9F8B7"/>
<path d="M202.78 200.65L279.52 278.33C279.52 278.33 292.03 298.79 270.14 298.79C248.25 298.79 107.52 298.79 107.52 298.79L120.03 283.05L181.78 272.65C181.78 272.65 155.78 245.65 148.78 219.65C141.78 193.65 148.78 219.65 148.78 219.65L202.78 200.65Z" fill="#65709E"/>
<path d="M105.617 186.986L80.959 205.723L81.2615 206.121L105.92 187.384L105.617 186.986Z" fill="black"/>
<path d="M99.6183 197.985L74.96 216.722L75.2625 217.12L99.9208 198.383L99.6183 197.985Z" fill="black"/>
<path d="M103.58 278.08L80.8997 283.11V294.85L103.58 293.17V278.08Z" fill="white"/>
<path d="M80.6396 295.12V282.91L80.8396 282.87L103.83 277.77V293.4L103.6 293.42L80.6396 295.12ZM81.1396 283.31V294.58L103.33 292.94V278.39L81.1396 283.31Z" fill="black"/>
<path d="M121.33 283.01L95.6897 287.74V298.79L121.33 297.21V283.01Z" fill="white"/>
<path d="M95.4297 299.06V287.54L95.6297 287.5L121.57 282.71V297.45L95.4297 299.06ZM95.9297 287.95V298.52L121.07 296.97V283.3L95.9297 287.95Z" fill="black"/>
<path d="M282.98 293.12C282.52 293.12 282.27 293.09 282.25 293.09L282.32 292.59C282.41 292.6 291.23 293.65 299.24 282.36C307.1 271.28 305.14 267.98 300.39 260L299.94 259.24C294.98 250.88 227.4 199.89 226.72 199.37L227.02 198.97C229.81 201.07 295.36 250.54 300.37 258.98L300.82 259.73C305.54 267.67 307.7 271.29 299.65 282.63C292.79 292.3 285.3 293.12 282.98 293.12Z" fill="black"/>
<path d="M73.48 282.59C73.7 290.04 73.53 297.51 73 304.92C73.71 306.1 75 305.83 75.79 304.77C76.58 303.72 76.98 302.12 77.36 300.62C77.74 299.11 78.19 297.54 79.02 296.58C79.45 296.09 79.96 295.77 80.28 295.1C80.65 294.34 80.66 293.3 80.66 292.34C80.66 290.15 81.41 283.61 80.15 282.24C79.56 281.6 73.48 282.59 73.48 282.59Z" fill="black"/>
<path d="M88.27 287.49C88.49 294.63 88.32 301.79 87.79 308.89C88.5 310.03 89.79 309.76 90.58 308.75C91.37 307.74 91.77 306.22 92.15 304.77C92.53 303.32 92.98 301.82 93.81 300.9C94.24 300.43 94.75 300.12 95.07 299.48C95.44 298.75 95.45 297.75 95.45 296.84C95.45 294.74 96.2 288.47 94.94 287.16C94.35 286.54 88.27 287.49 88.27 287.49Z" fill="black"/>
<path d="M149.93 64.3199C153.2 61.8499 153.66 56.7299 151.57 53.1999C149.48 49.6699 145.42 47.6599 141.35 47.1299C137.58 46.6399 133.37 47.4499 130.89 50.3199C128 53.6699 128.1 58.9499 125 62.1099C121.92 65.2399 116.94 65.1399 112.56 64.8599C108.18 64.5799 103.16 64.5999 100.21 67.8499C98.2897 69.9599 97.7497 72.9799 97.7097 75.8299C97.6097 82.7099 100.34 89.9999 106.14 93.6999C109.16 95.6299 112.77 96.4599 115.83 98.3199C120.84 101.37 123.93 106.88 128.82 110.13C134.63 113.99 142.5 114.07 148.84 111.13C155.18 108.19 160 102.54 162.85 96.1699C165.7 89.7999 166.7 82.7299 166.78 75.7499C166.8 73.5299 166.69 71.1599 165.42 69.3399C164.23 67.6299 162.23 66.7099 160.49 65.5499C156.06 62.5899 151.37 57.9499 150.78 52.6499" fill="#F6C68C"/>
<path d="M276.78 113.65C266.66 109.31 207.32 94.2904 181.91 87.6604C170.53 84.6904 158.58 84.6604 147.17 87.5404C140.58 89.2004 134.56 90.6304 134.4 90.3204C134.4 90.3204 89.33 109.6 76.99 151.07C64.65 192.54 122.4 145.81 122.4 145.81L125.14 146.05L148.78 219.66L228.85 201.6L190.78 123.66L271.32 126.31C271.32 126.3 291.09 119.78 276.78 113.65Z" fill="#18314F"/>
<path d="M133.74 126.92C134.49 126 135.31 125.04 136.46 124.68C138.23 124.13 140.12 125.18 141.99 125.49C142.99 125.66 144.03 125.6 145.03 125.78C146.04 125.97 147.07 126.45 147.54 127.35C148.01 128.25 147.57 129.57 146.58 129.72C147.47 131.48 146.59 133.53 145.72 135.23C145.01 136.61 144.01 138.19 142.42 138.19C141.05 138.19 139.95 137 138.62 136.7C137.31 136.42 135.99 137.02 135 137.86C134.01 138.7 133.26 139.78 132.3 140.66C130.06 142.73 126.73 143.62 123.65 142.98C125.21 140.03 127.02 137.12 128.38 134.08C129.6 131.32 132.29 129.53 133.74 126.92Z" fill="white"/>
<path d="M125.67 143.43C124.98 143.43 124.28 143.36 123.6 143.22L123.28 143.15L123.43 142.86C123.96 141.85 124.53 140.83 125.09 139.85C126.16 137.94 127.26 135.97 128.15 133.97C128.83 132.45 129.95 131.21 131.03 130.02C131.93 129.02 132.87 127.99 133.52 126.81L133.54 126.77C134.36 125.76 135.19 124.83 136.38 124.45C137.66 124.05 138.99 124.44 140.27 124.81C140.85 124.98 141.44 125.15 142.02 125.25C142.49 125.33 142.99 125.36 143.47 125.39C143.99 125.42 144.53 125.45 145.06 125.55C145.8 125.69 147.14 126.1 147.75 127.25C148.04 127.8 148.04 128.53 147.75 129.11C147.56 129.49 147.27 129.76 146.91 129.9C147.61 131.62 146.86 133.54 145.93 135.36C145.19 136.8 144.12 138.45 142.41 138.45C141.57 138.45 140.84 138.04 140.13 137.65C139.6 137.36 139.1 137.08 138.56 136.96C137.5 136.73 136.26 137.13 135.15 138.07C134.63 138.51 134.16 139.03 133.71 139.54C133.31 139.99 132.91 140.45 132.45 140.86C130.65 142.51 128.18 143.43 125.67 143.43ZM124.02 142.79C126.93 143.3 130.01 142.42 132.12 140.47C132.55 140.07 132.95 139.62 133.34 139.19C133.8 138.67 134.28 138.13 134.83 137.67C136.06 136.64 137.46 136.19 138.67 136.46C139.28 136.6 139.84 136.91 140.38 137.21C141.06 137.59 141.71 137.95 142.42 137.95C143.85 137.95 144.78 136.52 145.5 135.13C146.42 133.33 147.16 131.44 146.35 129.85L146.19 129.54L146.53 129.49C146.97 129.42 147.21 129.08 147.31 128.88C147.53 128.44 147.53 127.89 147.31 127.48C146.8 126.51 145.63 126.16 144.97 126.04C144.47 125.95 143.95 125.92 143.44 125.89C142.95 125.86 142.44 125.83 141.94 125.75C141.33 125.65 140.72 125.47 140.13 125.3C138.86 124.93 137.66 124.58 136.53 124.93C135.48 125.26 134.71 126.13 133.94 127.07C133.26 128.29 132.31 129.34 131.39 130.35C130.33 131.52 129.24 132.73 128.59 134.17C127.69 136.19 126.58 138.17 125.5 140.09C125.02 140.97 124.51 141.88 124.02 142.79Z" fill="black"/>
<path d="M278.058 0.699719L239.368 31.2559L247.475 41.521L286.165 10.9649L278.058 0.699719Z" fill="white"/>
<path d="M247.38 42.22L238.66 31.17L278.13 0L286.85 11.05L247.38 42.22ZM240.06 31.34L247.54 40.82L285.45 10.88L277.97 1.4L240.06 31.34Z" fill="black"/>
<path d="M266.618 0.699231L227.927 31.2554L236.034 41.5206L274.725 10.9644L266.618 0.699231Z" fill="#E2EFCD"/>
<path d="M235.94 42.22L227.22 31.17L266.69 0L275.41 11.05L235.94 42.22ZM228.62 31.34L236.1 40.82L274.01 10.88L266.53 1.4L228.62 31.34Z" fill="black"/>
<path d="M376.28 109.15H267.28V71.4799C267.28 61.3599 275.49 53.1499 285.61 53.1499H357.95C368.07 53.1499 376.28 61.3599 376.28 71.4799V109.15Z" fill="#688C92"/>
<path d="M353 60C356.667 61.6667 364.1 66.6 364.5 73C364.9 79.4 364.667 100 364.5 109.5" stroke="black"/>
<path d="M376.53 109.4H267.03V71.4799C267.03 61.2399 275.36 52.8999 285.61 52.8999H357.95C368.2 52.8999 376.53 61.2299 376.53 71.4799V109.4ZM267.53 108.9H376.03V71.4799C376.03 61.5099 367.92 53.3999 357.95 53.3999H285.61C275.64 53.3999 267.53 61.5099 267.53 71.4799V108.9Z" fill="black"/>
<path d="M297.78 71.98C297.78 62.41 290.45 54.57 281.1 53.73C273.16 55.74 267.28 62.91 267.28 71.48V109.15H297.78V71.98Z" fill="#1A3245"/>
<path d="M297.78 109.65L280.78 133.65H254.78L266.78 109.65H297.78Z" fill="#1A3245"/>
<path d="M334.78 109.65H321.78V298.65H334.78V109.65Z" fill="#1A3245"/>
<path d="M283.28 74.1499H221.28V109.15H283.28V74.1499Z" fill="white"/>
<path d="M283.53 109.4H221.03V73.8999H283.53V109.4ZM221.53 108.9H283.03V74.3999H221.53V108.9Z" fill="black"/>
<path d="M221.28 74.1499L252.28 91.1499L283.28 74.1499H221.28Z" fill="#E2EFCD"/>
<path d="M127.36 93.8704L181.45 212.28L215.5 204.6L151.38 86.6104C151.38 86.6104 128.94 93.0804 127.36 93.8704Z" fill="black"/>
<path d="M136.39 66.5996L132.88 96.8496C132.88 96.8496 139.33 107.78 149.08 96.6196L144.77 72.1496L136.39 66.5996Z" fill="white"/>
<path d="M140.45 101.89C140.22 101.89 140 101.88 139.78 101.86C135.35 101.45 132.77 97.1597 132.67 96.9797L132.63 96.9097L132.64 96.8297L136.2 66.1797L145 71.9897L149.35 96.6897L149.27 96.7797C146.31 100.17 143.34 101.89 140.45 101.89ZM133.14 96.7897C133.49 97.3397 135.95 101 139.83 101.36C142.74 101.63 145.76 100.01 148.82 96.5397L144.55 72.2897L136.6 67.0297L133.14 96.7897Z" fill="black"/>
<path d="M138.81 74.4399L147.82 88.7099L145 74.7499L138.81 74.4399Z" fill="black"/>
<path d="M144.32 57.3403C144.32 57.3403 138.68 57.8603 136.96 64.1803C135.24 70.5103 139.76 78.4603 146.17 76.5603C152.58 74.6503 153.46 56.9503 144.32 57.3403Z" fill="white"/>
<path d="M144.26 77.0998C142.53 77.0998 140.9 76.4098 139.52 75.0598C136.83 72.4398 135.68 67.9398 136.72 64.1198C136.86 63.5898 137.04 63.0798 137.25 62.5898L137.71 62.7898C137.51 63.2498 137.34 63.7398 137.2 64.2498C136.21 67.8998 137.3 72.1998 139.87 74.6998C141.63 76.4198 143.84 76.9898 146.1 76.3198C149.52 75.2998 151.26 69.5498 150.74 64.8198L151.24 64.7698C151.77 69.6798 150.02 75.6798 146.24 76.7998C145.57 76.9998 144.91 77.0998 144.26 77.0998Z" fill="black"/>
<path d="M144.37 56.88C144.37 56.88 139.54 57.42 137.13 62.49L147 60.35L151.38 64.75C150.94 60.34 148.75 56.61 144.37 56.88Z" fill="#F6C68C"/>
<path d="M162.72 248.49L198.78 270.65L180.78 272.65L162.72 248.49Z" fill="black"/>
</svg>
