<svg width="439" height="363" viewBox="0 0 439 363" fill="none" xmlns="http://www.w3.org/2000/svg">
<ellipse cx="222.559" cy="320.815" rx="216.136" ry="35.2349" fill="#DBDEE8"/>
<path d="M416.131 297.072C416.131 271.186 411.032 245.553 401.126 221.637C391.22 197.722 376.7 175.991 358.396 157.687C340.092 139.383 318.361 124.863 294.446 114.957C270.53 105.051 244.897 99.9521 219.011 99.9521C193.125 99.9521 167.492 105.051 143.577 114.957C119.661 124.863 97.9308 139.383 79.6266 157.687C61.3223 175.991 46.8026 197.722 36.8964 221.637C26.9902 245.553 21.8916 271.186 21.8916 297.072L219.011 297.072H416.131Z" fill="#E8F0FF"/>
<path d="M335.932 237.723C357.827 200.478 395.051 121.968 368.775 105.885C335.932 85.7823 303.088 192.375 335.932 237.723Z" fill="#5E8D93"/>
<path d="M332.117 271.851C366.763 245.913 431.677 187.76 414.172 162.662C392.291 131.289 320.234 217.124 332.117 271.851Z" fill="#5E8D93"/>
<path d="M376.327 119.451C376.628 130.335 374.343 158.442 362.8 183.806C351.257 209.169 349.574 219.611 350.175 221.661" stroke="black"/>
<path d="M51.0647 346.472L26.5491 355.145L16.3546 345.969L37.9605 334.68L51.0647 346.472Z" fill="white" stroke="black" stroke-width="0.5" stroke-miterlimit="10"/>
<path d="M244.394 312.237H115.179C107.384 312.237 101.067 305.911 101.067 298.104V70.6453C101.067 62.839 107.384 56.5132 115.179 56.5132H244.394C252.189 56.5132 258.506 62.839 258.506 70.6453V298.104C258.506 305.911 252.189 312.237 244.394 312.237Z" fill="#F8FFEE"/>
<path d="M117.448 52.873H247.078C254.899 52.873 261.236 59.1876 261.236 66.98V294.036" stroke="black" stroke-width="0.5" stroke-miterlimit="10"/>
<path d="M281.711 168.636C279.923 167.219 278.996 164.79 279.417 162.547C274.121 160.624 270.68 154.568 271.76 149.035C272.064 147.466 272.671 145.948 272.688 144.363C272.721 141.141 270.326 137.969 271.406 134.933C272.35 132.285 275.521 131.155 277.107 128.827C278.405 126.921 278.591 124.289 280.379 122.838C282.268 121.32 284.983 121.809 287.412 121.658C289.47 121.523 291.46 120.865 293.484 120.409C295.508 119.954 297.667 119.718 299.606 120.426C301.546 121.135 303.182 123.024 303.03 125.082C305.375 124.626 307.753 124.171 310.131 124.289C312.509 124.407 314.955 125.149 316.675 126.803C318.395 128.456 319.222 131.138 318.311 133.347C321.296 133.145 324.552 134.022 326.373 136.418C327.419 137.801 327.874 139.504 328.313 141.174C328.852 143.266 329.409 145.341 329.949 147.433C330.505 149.541 331.045 151.667 331.062 153.843C331.079 156.019 330.505 158.279 329.038 159.882C327.571 161.501 325.125 162.294 323.118 161.433C323.624 163.053 324.147 164.672 324.214 166.376C324.265 168.063 323.809 169.851 322.612 171.032C321.414 172.212 319.39 172.634 317.974 171.706C317.704 174.473 314.82 176.379 312.054 176.531C309.288 176.683 306.623 175.536 304.093 174.405C303.738 174.254 301.681 175.08 301.175 175.148C300.078 175.299 298.948 175.299 297.835 175.181C295.609 174.945 293.467 174.169 291.595 172.955C290.262 172.094 289.132 170.812 287.614 170.273C285.557 169.581 283.549 170.07 281.711 168.636Z" fill="#F6C68C"/>
<path d="M187.461 245.203L161.504 237.19C155.735 235.402 149.461 236.448 144.637 240.075C141.365 242.521 137.756 245.793 134.821 249.858C112.895 280.222 90.9688 324.08 90.9688 324.08L105.065 329.352L165.181 278.535C193.259 294.703 290.026 349.174 323.107 320.815C342.443 299.331 327.097 253.232 327.097 253.232L212.406 241.424L187.461 245.203Z" fill="#E9F8B7"/>
<path d="M43.8359 348.64L27 334.989L167.692 270.047L265.432 259C287.274 270.285 318.822 274.32 331.866 274.926C338.418 317.517 315.182 329.074 302.744 329.529C268.921 327.102 197.725 322.613 183.528 324.069C169.331 325.525 84.4847 341.056 43.8359 348.64Z" fill="#436196"/>
<path d="M265 259.5L168 270L26.5 335" stroke="black"/>
<path d="M183.191 307.547V324.047L44.6914 347.547L183.191 307.547Z" fill="#1A3245"/>
<path d="M340.254 190.549C353.41 201.547 374.189 254.464 366.869 262.527C361.54 268.397 353.292 270.522 345.449 271.669C316.608 275.937 286.366 270.792 260.544 257.264C246.191 249.74 233.524 252.844 217.316 251.579C200.584 250.263 184.038 246.67 168.302 240.868C165.637 233.429 168.116 224.91 172.873 218.601C177.612 212.292 184.342 207.789 191.055 203.639C215.612 188.474 232.883 166.933 286.602 162.126C300.416 160.894 291.224 159.342 303.519 166.275C316.287 173.512 328.971 181.136 340.254 190.549Z" fill="#0F1F31"/>
<path d="M286.602 162.142C300.416 160.911 291.224 159.359 303.519 166.292C316.287 173.512 328.971 181.119 340.254 190.549C353.41 201.547 374.189 254.463 366.869 262.526C361.54 268.397 353.292 270.522 345.449 271.669C316.608 275.937 286.366 270.792 260.544 257.263C246.191 249.74 233.524 252.844 217.316 251.579C200.584 250.263 184.038 246.67 168.302 240.867C165.637 233.428 168.116 224.91 172.873 218.601" stroke="black" stroke-width="0.5" stroke-miterlimit="10"/>
<path d="M289.554 142.794L283.415 167.253C283.415 167.253 287.631 177.088 296.941 169.159L295.946 148.445L289.554 142.794Z" fill="white"/>
<path d="M290.954 149.575L296.621 162.513L296.047 150.503L290.954 149.575Z" fill="black"/>
<path d="M295.845 129.907C295.845 129.907 289.79 129.35 286.872 135.659C283.954 141.968 287.327 151.211 294.445 150.452C301.563 149.693 305.594 131.273 295.845 129.907Z" fill="white"/>
<path d="M21.6599 361.127C15.9305 355.186 9.88722 349.549 3.58365 344.271C3.21129 342.763 4.50494 341.911 5.96678 342.056C7.43936 342.222 9.02605 343.119 10.5272 343.952C12.0284 344.785 13.6469 345.639 15.0872 345.688C15.8233 345.718 16.5055 345.535 17.2956 345.778C18.1978 346.058 19.0214 346.845 19.7916 347.579C21.5245 349.27 27.3136 353.685 27.3784 355.803C27.3973 356.822 21.6599 361.127 21.6599 361.127Z" fill="black"/>
<path d="M128.369 79.2646C128.369 88.4317 128.369 97.5791 128.369 106.746V112.936" stroke="black" stroke-width="0.5" stroke-miterlimit="10"/>
<path d="M137.47 79.2646C137.757 88.4317 138.092 97.5791 138.38 106.746V112.936" stroke="black" stroke-width="0.5" stroke-miterlimit="10"/>
<path d="M147.48 79.2646C147.48 88.4317 147.48 97.5791 147.48 106.746V112.936" stroke="black" stroke-width="0.5" stroke-miterlimit="10"/>
<path d="M156.581 79.2646C156.868 88.4317 157.203 97.5791 157.491 106.746V112.936" stroke="black" stroke-width="0.5" stroke-miterlimit="10"/>
<path d="M251.807 194.546H177.781V245.202H251.807V194.546Z" fill="white"/>
<path d="M177.781 194.546H251.807V245.202" stroke="black" stroke-width="0.5" stroke-miterlimit="10"/>
<path d="M177.781 245.203L219.339 256.251L284.916 254.953L251.807 245.203H177.781Z" fill="white"/>
<path d="M314.381 206.182L318.702 241.458L287.385 237.524" stroke="black" stroke-width="0.5" stroke-miterlimit="10"/>
<path d="M282.908 162.514C282.908 162.514 275.639 173.107 282.385 174.794C289.132 176.481 300.938 179.854 304.311 166.36" stroke="black" stroke-width="0.5" stroke-miterlimit="10"/>
<path d="M259.616 192.506L251.807 226.563" stroke="black" stroke-width="0.5" stroke-miterlimit="10"/>
<path d="M166.591 79.2646H114.718V113.846H166.591V79.2646Z" stroke="black" stroke-width="0.5" stroke-miterlimit="10"/>
<path d="M114.718 132.957H232.114" stroke="black" stroke-width="0.5" stroke-miterlimit="10"/>
<path d="M115.628 152.068H233.025" stroke="black" stroke-width="0.5" stroke-miterlimit="10"/>
<path d="M115.628 169.359H208.453" stroke="black" stroke-width="0.5" stroke-miterlimit="10"/>
<path d="M228.474 79.2646H180.242V86.545H228.474V79.2646Z" stroke="black" stroke-width="0.5" stroke-miterlimit="10"/>
<path d="M282.755 234.512C279.925 233.691 276.762 233.176 273.96 234.467C271.732 235.491 270.071 237.526 268.6 239.543C266.374 242.615 264.372 245.857 262.657 249.238C262.339 249.864 262.025 250.516 262.064 251.208C262.114 251.883 262.66 252.549 263.317 252.43C263.841 252.343 264.221 251.829 264.515 251.378C265.566 249.801 266.627 248.208 267.677 246.631C267.194 248.911 266.699 251.207 266.216 253.487C268.3 251.965 270 249.836 270.988 247.432C271.379 247.926 271.237 248.69 270.972 249.303C270.706 249.915 270.329 250.527 270.306 251.178C270.282 251.829 270.849 252.532 271.461 252.312C271.902 252.147 272.113 251.618 272.265 251.146C272.783 249.532 273.29 247.934 273.808 246.319C274.535 247.222 273.566 249.185 274.651 249.607C275.081 249.768 275.598 249.486 275.875 249.096C276.152 248.705 276.273 248.212 276.383 247.736C276.686 246.315 277.004 244.904 277.307 243.482C280.72 245.732 284.553 247.373 288.584 248.264C289.088 246.331 289.595 244.424 290.099 242.49C290.413 241.291 291.898 238.021 291.498 236.927C291.113 235.843 288.695 236.099 287.717 235.89C286.055 235.568 284.43 234.985 282.755 234.512Z" fill="white" stroke="black" stroke-width="0.5" stroke-miterlimit="10"/>
<path d="M302.911 139.914C306.635 140.2 314.083 142.664 314.083 150.226C314.083 157.789 316.375 162.258 317.521 163.547" stroke="black"/>
<path d="M287.442 133.039C288.015 133.039 288.646 132.093 286.583 128.312C284.521 124.531 281.713 124.158 280.567 124.445" stroke="black"/>
<ellipse cx="208.809" cy="219.837" rx="5.58603" ry="6.44542" fill="#FF6889"/>
<path d="M303 271L332.735 287.953L332.28 272.771C332.28 272.771 313.272 273.446 303 271Z" fill="black"/>
<circle cx="214.395" cy="217.689" r="8.09389" stroke="black"/>
<path d="M299.044 130.461L287.442 134.328L289.161 130.031L296.466 126.164L303.341 134.328L300.333 144.64L299.044 130.461Z" fill="#F6C68C"/>
<path d="M92.1528 122.269L63.3441 98.5921L69.8893 92.3546L92.1528 122.269Z" stroke="black" stroke-width="0.5" stroke-miterlimit="10"/>
<path d="M291.301 92.7586C289.425 91.1109 290.462 87.7942 292.542 86.3962C294.619 84.9892 297.253 84.8296 299.705 84.3229C302.157 83.8163 304.808 82.6393 305.635 80.2774C306.675 77.2897 304.399 73.4586 306.503 71.0909C308.879 68.4076 313.516 71.1232 316.85 69.7975C321.638 67.9035 320.15 59.9012 324.304 56.8569C325.885 55.7033 327.951 55.532 329.902 55.3506C331.853 55.1693 333.941 54.86 335.373 53.5383C336.811 52.2046 337.062 49.493 335.375 48.5004" stroke="black" stroke-width="0.5" stroke-miterlimit="10"/>
<rect x="22.1647" y="305.803" width="46.7459" height="12.7269" transform="rotate(-38.3018 22.1647 305.803)" fill="white" stroke="black"/>
<rect x="11.422" y="305.803" width="46.7459" height="12.7269" transform="rotate(-38.3018 11.422 305.803)" fill="#E2EFCD" stroke="black"/>
<circle cx="134.739" cy="7.37033" r="6.37033" stroke="black" stroke-width="0.5" stroke-miterlimit="10"/>
</svg>
