<svg width="18" height="18" viewBox="0 0 18 18" fill="none" xmlns="http://www.w3.org/2000/svg">
<path d="M14.7856 9.0001C14.4305 9.0001 14.1427 9.28792 14.1427 9.64297V16.0715C14.1427 16.4265 13.8549 16.7143 13.4998 16.7143H1.92855C1.5735 16.7143 1.28569 16.4265 1.28569 16.0715V3.21444C1.28569 2.85939 1.5735 2.57158 1.92855 2.57158H9.64277C9.99782 2.57158 10.2856 2.28376 10.2856 1.92871C10.2856 1.57366 9.99782 1.28589 9.64277 1.28589H1.92855C0.863442 1.28589 0 2.14933 0 3.21444V16.0715C0 17.1366 0.863442 18 1.92855 18H13.4999C14.565 18 15.4284 17.1366 15.4284 16.0715V9.64293C15.4284 9.28792 15.1406 9.0001 14.7856 9.0001Z" fill="#1E314D"/>
<path d="M17.2795 0.720882C16.8179 0.259235 16.1918 -6.51636e-05 15.539 1.01705e-05C14.8858 -0.00187318 14.2591 0.257879 13.7988 0.721297L5.33116 9.18825C5.26091 9.25903 5.20791 9.34506 5.17624 9.4396L3.89055 13.2967C3.77833 13.6336 3.96046 13.9976 4.29731 14.1098C4.36266 14.1315 4.43111 14.1426 4.49996 14.1427C4.56897 14.1426 4.63756 14.1315 4.7031 14.1099L8.56021 12.8243C8.65494 12.7926 8.74101 12.7393 8.81156 12.6687L17.2792 4.20106C18.2403 3.24009 18.2404 1.68196 17.2795 0.720882Z" fill="#1E314D"/>
</svg>
