<svg width="121" height="29" viewBox="0 0 121 29" fill="none" xmlns="http://www.w3.org/2000/svg">
<path d="M20.1308 12.6306H23.5742L11.9195 4.68423L0.264879 12.6306H3.7083V22.4311H0V25.0799H23.8391V22.4311H20.1308V12.6306ZM6.88685 12.6306H16.9522V22.4311H6.88685V12.6306Z" fill="white"/>
<path d="M18.7164 7.7197L22.3823 4.4511L23.3888 5.45764L19.8659 8.39249L19.0289 7.90512L20.8725 8.98052L24.8986 5.95561L20.3692 0.922913L14.8333 5.45234L18.3932 7.52899L18.7164 7.7197ZM20.3692 2.93599L21.3758 3.94253L19.3627 5.45234L18.2608 4.76895L20.3692 2.93599Z" fill="white"/>
<path d="M35.5601 24.0272C35.468 24.0272 35.3168 24.0207 35.1063 24.0076C34.8958 23.9946 34.6788 23.9815 34.4551 23.9685C34.2315 23.9554 34.0145 23.9424 33.804 23.9293C33.5935 23.9163 33.4422 23.9097 33.3502 23.9097H32.9753C32.8832 23.9097 32.7319 23.9163 32.5214 23.9293C32.311 23.9424 32.0939 23.9554 31.8703 23.9685C31.6466 23.9815 31.4296 23.9946 31.2191 24.0076C31.0087 24.0207 30.8574 24.0272 30.7653 24.0272L30.7258 23.9489L30.785 23.5965L30.8837 23.5182C31.0415 23.5182 31.2257 23.5116 31.4362 23.4986C31.6466 23.4725 31.8111 23.4203 31.9295 23.342C32.0347 23.2637 32.1334 23.1397 32.2254 22.97C32.3175 22.8003 32.3833 22.5458 32.4228 22.2064C32.4228 22.1151 32.4228 22.0107 32.4228 21.8932C32.4359 21.7627 32.4425 21.6061 32.4425 21.4233C32.4557 21.2406 32.4622 21.0187 32.4622 20.7577C32.4622 20.4966 32.4622 20.1703 32.4622 19.7788V14.6885C32.4622 14.4275 32.4557 14.1338 32.4425 13.8075C32.4425 13.4681 32.4293 13.1353 32.403 12.809C32.3767 12.5088 32.3175 12.2739 32.2254 12.1042C32.1334 11.9215 32.0347 11.7844 31.9295 11.6931C31.8111 11.6278 31.6861 11.5821 31.5546 11.556C31.4362 11.5169 31.2125 11.4973 30.8837 11.4973L30.785 11.419L30.7258 11.0666L30.7653 10.9883C30.8574 10.9883 30.9758 10.9948 31.1205 11.0078C31.2783 11.0209 31.4362 11.0339 31.594 11.047C31.765 11.06 31.936 11.0731 32.1071 11.0861C32.2781 11.0992 32.4359 11.1057 32.5806 11.1057H33.291C33.4357 11.1057 33.6001 11.1057 33.7843 11.1057C33.9684 11.1057 34.1526 11.1057 34.3367 11.1057C34.5341 11.0927 34.7117 11.0861 34.8695 11.0861C35.0274 11.0861 35.1589 11.0861 35.2641 11.0861C36.1455 11.0861 36.8887 11.171 37.4938 11.3407C38.1121 11.5103 38.612 11.7453 38.9935 12.0455C39.3749 12.3326 39.6512 12.685 39.8222 13.1027C40.0064 13.5073 40.0984 13.9445 40.0984 14.4144C40.0984 14.9756 39.9932 15.4651 39.7827 15.8827C39.5854 16.2874 39.3289 16.6398 39.0132 16.94C38.6975 17.2271 38.3423 17.462 37.9477 17.6448C37.553 17.8144 37.165 17.945 36.7835 18.0363C37.2044 18.6237 37.6385 19.2045 38.0858 19.7788C38.533 20.3531 38.9935 20.9143 39.467 21.4625C39.7301 21.7627 39.9735 22.0302 40.1971 22.2652C40.4207 22.5001 40.6575 22.7024 40.9074 22.8721C41.1705 23.0418 41.4599 23.1788 41.7756 23.2832C42.0913 23.3876 42.4728 23.466 42.9201 23.5182L43.0385 23.5965L43.0779 23.9489L43.0385 24.0272C42.7491 24.0402 42.4202 24.0533 42.0519 24.0664C41.6836 24.0925 41.3942 24.1055 41.1837 24.1055C40.8417 24.1055 40.5457 24.0664 40.2958 23.988C40.0458 23.9097 39.8025 23.7857 39.5657 23.6161C39.3289 23.4464 39.0855 23.2245 38.8356 22.9504C38.5988 22.6763 38.3226 22.35 38.0069 21.9715C37.9674 21.9324 37.849 21.7823 37.6517 21.5212C37.4675 21.2471 37.2373 20.9273 36.9611 20.5619C36.698 20.1834 36.4152 19.7853 36.1126 19.3676C35.8232 18.9369 35.5535 18.5388 35.3036 18.1734H33.8632C33.8632 18.5258 33.8632 18.9108 33.8632 19.3285C33.8632 19.7461 33.8632 20.1442 33.8632 20.5227C33.8763 20.9012 33.8829 21.2471 33.8829 21.5604C33.8961 21.8606 33.9092 22.0759 33.9224 22.2064C33.9487 22.5849 34.0145 22.8525 34.1197 23.0091C34.2249 23.1527 34.317 23.2571 34.3959 23.3224C34.5143 23.3876 34.6327 23.4399 34.7511 23.479C34.8827 23.5051 35.1194 23.5182 35.4615 23.5182L35.5404 23.5965L35.5996 23.9489L35.5601 24.0272ZM35.6588 17.3119C36.7506 17.3119 37.5333 17.064 38.0069 16.568C38.4936 16.059 38.7369 15.3802 38.7369 14.5319C38.7369 13.7357 38.4607 13.1223 37.9082 12.6915C37.3689 12.2608 36.6256 12.0455 35.6785 12.0455H33.9618C33.9355 12.424 33.9158 12.7437 33.9026 13.0048C33.9026 13.2658 33.8961 13.4942 33.8829 13.69C33.8698 13.8858 33.8632 14.062 33.8632 14.2186C33.8632 14.3752 33.8632 14.5253 33.8632 14.6689V16.5876C33.8632 16.7572 33.8698 16.8943 33.8829 16.9987C33.8961 17.0901 33.929 17.1618 33.9816 17.2141C34.0342 17.2532 34.1065 17.2793 34.1986 17.2924C34.3039 17.3054 34.442 17.3119 34.613 17.3119H35.6588Z" fill="white"/>
<path d="M52.394 18.6432L52.0783 18.7803C51.3679 18.7803 50.6378 18.7868 49.888 18.7999C49.1382 18.8129 48.4016 18.8194 47.6781 18.8194H45.3497C45.3366 18.9108 45.33 19.0022 45.33 19.0935C45.33 19.1719 45.33 19.2502 45.33 19.3285C45.33 19.8245 45.4023 20.3008 45.547 20.7577C45.6917 21.2014 45.9154 21.593 46.2179 21.9323C46.5336 22.2717 46.9348 22.5458 47.4216 22.7546C47.9083 22.9504 48.5002 23.0483 49.1974 23.0483C49.6052 23.0483 50.0393 23.0091 50.4997 22.9308C50.9733 22.8395 51.4074 22.6828 51.802 22.461L51.9993 22.5784V22.9308L51.802 23.1462C51.4863 23.3942 51.039 23.6226 50.4602 23.8314C49.8814 24.0272 49.2369 24.1251 48.5265 24.1251C47.8293 24.1251 47.1913 24.0141 46.6125 23.7923C46.0469 23.5573 45.5536 23.231 45.1327 22.8134C44.7249 22.3957 44.4026 21.8997 44.1658 21.3254C43.9422 20.7511 43.8304 20.1116 43.8304 19.4068C43.8304 18.6889 43.9488 18.0363 44.1855 17.449C44.4223 16.8616 44.7446 16.3591 45.1524 15.9415C45.5733 15.5238 46.0601 15.1975 46.6125 14.9626C47.1782 14.7276 47.7833 14.6102 48.4279 14.6102C48.7699 14.6102 49.1514 14.6559 49.5723 14.7472C50.0064 14.8386 50.4208 15.0148 50.8154 15.2758C51.2101 15.5238 51.5652 15.8827 51.8809 16.3526C52.1966 16.8094 52.4137 17.4164 52.5321 18.1734L52.394 18.6432ZM48.4476 15.4912C48.0267 15.4912 47.6452 15.563 47.3032 15.7065C46.9743 15.8371 46.6783 16.0198 46.4152 16.2547C46.1653 16.4766 45.9548 16.7442 45.7838 17.0574C45.626 17.3576 45.5141 17.6774 45.4484 18.0168H46.2179C46.9283 18.0168 47.6189 18.0102 48.2898 17.9972C48.9606 17.9711 49.6644 17.9384 50.4011 17.8993C50.5721 17.8862 50.6839 17.8405 50.7365 17.7622C50.8023 17.6839 50.8352 17.5926 50.8352 17.4881C50.8352 17.4098 50.8286 17.338 50.8154 17.2728C50.8023 17.2075 50.7825 17.1423 50.7562 17.077C50.6115 16.581 50.3419 16.196 49.9472 15.9219C49.5526 15.6348 49.0527 15.4912 48.4476 15.4912Z" fill="white"/>
<path d="M57.4185 16.5876C57.7605 16.0263 58.2012 15.5564 58.7405 15.1779C59.2799 14.7994 59.9507 14.6102 60.7532 14.6102C61.1215 14.6102 61.4898 14.6624 61.8581 14.7668C62.2265 14.8712 62.5619 15.0344 62.8645 15.2563C63.1802 15.4781 63.4367 15.7653 63.634 16.1177C63.8445 16.457 63.9826 16.8616 64.0484 17.3315C64.0878 17.6709 64.1076 18.0298 64.1076 18.4083C64.1207 18.7868 64.1273 19.1653 64.1273 19.5438C64.1273 20.0137 64.1273 20.4901 64.1273 20.973C64.1404 21.4429 64.147 21.9128 64.147 22.3826C64.1733 22.6828 64.2062 22.9047 64.2457 23.0483C64.2851 23.1788 64.3443 23.2767 64.4233 23.342C64.5417 23.4464 64.6995 23.5116 64.8968 23.5377C65.1073 23.5508 65.3178 23.5573 65.5283 23.5573L65.5874 23.6356L65.6269 23.9097L65.5874 23.988C65.3638 23.9619 65.1139 23.9424 64.8376 23.9293C64.5614 23.9163 64.2917 23.9097 64.0286 23.9097C63.5288 23.9097 63.0749 23.9293 62.6671 23.9685L62.529 23.7727C62.5816 23.603 62.6211 23.3811 62.6474 23.107C62.6737 22.8329 62.6935 22.5915 62.7066 22.3826C62.7329 21.8345 62.7526 21.2993 62.7658 20.7772C62.779 20.2421 62.7855 19.7983 62.7855 19.4459C62.7855 19.1457 62.7724 18.8194 62.7461 18.467C62.7329 18.1146 62.6935 17.8079 62.6277 17.5469C62.4961 16.9334 62.2265 16.4766 61.8187 16.1764C61.4109 15.8762 60.9373 15.7261 60.398 15.7261C59.9639 15.7261 59.5561 15.8175 59.1746 16.0002C58.8063 16.1829 58.4906 16.4114 58.2275 16.6854C57.9644 16.9465 57.7539 17.2271 57.5961 17.5273C57.4514 17.8144 57.379 18.0624 57.379 18.2713V20.4836C57.379 20.7707 57.379 21.0057 57.379 21.1884C57.379 21.3711 57.379 21.5277 57.379 21.6583C57.3922 21.7888 57.4053 21.9128 57.4185 22.0302C57.4316 22.1347 57.4448 22.2521 57.4579 22.3826C57.4843 22.6567 57.5106 22.8656 57.5369 23.0091C57.5763 23.1397 57.6487 23.2506 57.7539 23.342C57.8592 23.4333 58.0039 23.4921 58.188 23.5182C58.3853 23.5443 58.5827 23.5573 58.78 23.5573L58.8786 23.6552L58.9181 23.9097L58.8786 23.988C58.7866 23.988 58.6484 23.9815 58.4643 23.9685C58.2801 23.9554 58.0828 23.9424 57.8723 23.9293C57.6618 23.9293 57.4645 23.9228 57.2804 23.9097C57.0962 23.9097 56.9581 23.9097 56.866 23.9097H56.5897C56.4977 23.9097 56.353 23.9097 56.1556 23.9097C55.9715 23.9228 55.7742 23.9293 55.5637 23.9293C55.3664 23.9424 55.1691 23.9554 54.9717 23.9685C54.7876 23.9815 54.6495 23.988 54.5574 23.988L54.5376 23.9097L54.5574 23.6356L54.6363 23.5573C54.8468 23.5573 55.0507 23.5508 55.248 23.5377C55.4585 23.5116 55.6163 23.4464 55.7215 23.342C55.8268 23.2506 55.8926 23.1331 55.9189 22.9896C55.9583 22.846 55.9912 22.6437 56.0175 22.3826C56.0307 22.1738 56.0438 21.965 56.057 21.7561C56.0701 21.5343 56.0767 21.1884 56.0767 20.7185V18.3104C56.0767 18.0363 56.0767 17.8079 56.0767 17.6252C56.0767 17.4294 56.0701 17.2597 56.057 17.1162C56.057 16.9726 56.0504 16.8421 56.0373 16.7246C56.0373 16.6071 56.0307 16.4831 56.0175 16.3526C55.9912 16.209 55.9518 16.0851 55.8991 15.9806C55.8465 15.8632 55.8005 15.7849 55.761 15.7457C55.6295 15.5891 55.465 15.4977 55.2677 15.4716C55.0704 15.4325 54.8665 15.4129 54.656 15.4129L54.5771 15.3346V15.0605L54.656 15.0017H55.0112C55.2348 15.0017 55.5177 15.0017 55.8597 15.0017C56.2017 14.9887 56.4977 14.9626 56.7476 14.9234L57.4382 14.8255L57.5566 15.0017C57.4908 15.1714 57.4448 15.4064 57.4185 15.7065C57.3922 15.9937 57.3724 16.2743 57.3593 16.5484L57.4185 16.5876Z" fill="white"/>
<path d="M72.3875 15.824H69.8224C69.8224 16.6724 69.8158 17.4555 69.8027 18.1734C69.8027 18.8912 69.8027 19.5243 69.8027 20.0724C69.8027 20.6076 69.7961 21.0383 69.7829 21.3646C69.7829 21.6909 69.7829 21.8932 69.7829 21.9715C69.7829 22.4805 69.8816 22.8199 70.0789 22.9896C70.2762 23.1592 70.5064 23.2441 70.7695 23.2441C70.9931 23.2441 71.2497 23.2049 71.5391 23.1266C71.8416 23.0352 72.085 22.9374 72.2691 22.8329L72.4467 22.97L72.2691 23.5182C71.9666 23.727 71.6246 23.8771 71.2431 23.9685C70.8747 24.0729 70.5459 24.1251 70.2565 24.1251C69.5856 24.1251 69.112 23.9424 68.8358 23.5769C68.5596 23.2114 68.4214 22.7416 68.4214 22.1673C68.4214 22.0498 68.428 21.8084 68.4412 21.4429C68.4543 21.0774 68.4675 20.6206 68.4806 20.0724C68.4938 19.5243 68.5069 18.8912 68.5201 18.1734C68.5332 17.4555 68.5398 16.6724 68.5398 15.824H67.1191L67.0402 15.7261V15.3541L67.1191 15.2758L68.5398 15.0017C68.5398 14.5449 68.5267 14.0816 68.5004 13.6117C68.4872 13.1288 68.4675 12.6589 68.4412 12.2021L68.5793 12.0846L68.8555 12.065C68.9608 12.052 69.1318 12.0259 69.3686 11.9867C69.6053 11.9476 69.7698 11.9019 69.8618 11.8497L70.0394 11.928C70 12.1107 69.9671 12.3261 69.9408 12.5741C69.9145 12.809 69.8882 13.0635 69.8618 13.3376C69.8487 13.6117 69.8355 13.8923 69.8224 14.1795C69.8224 14.4666 69.8224 14.7407 69.8224 15.0017L72.3875 14.8843L72.4862 14.9626V15.7261L72.3875 15.824Z" fill="white"/>
<path d="M76.1449 12.809C76.1186 12.4827 76.0594 12.2412 75.9673 12.0846C75.8752 11.9149 75.77 11.7844 75.6516 11.6931C75.5332 11.6278 75.4082 11.5821 75.2767 11.556C75.1583 11.5169 74.9347 11.4973 74.6058 11.4973L74.5071 11.419L74.4479 11.0666L74.4874 10.9883C74.5795 10.9883 74.711 10.9948 74.882 11.0078C75.0531 11.0209 75.2372 11.0339 75.4345 11.047C75.6319 11.06 75.8226 11.0731 76.0068 11.0861C76.2041 11.0992 76.3751 11.1057 76.5198 11.1057H77.6445C77.8155 11.1057 78.026 11.1057 78.2759 11.1057C78.539 11.0927 78.8021 11.0796 79.0652 11.0666C79.3414 11.0535 79.6045 11.047 79.8545 11.047C80.1175 11.0339 80.328 11.0274 80.4859 11.0274C81.5119 11.0274 82.4262 11.2036 83.2286 11.556C84.0442 11.8954 84.7282 12.3587 85.2807 12.9461C85.8332 13.5334 86.2541 14.2186 86.5435 15.0017C86.8461 15.7849 86.9974 16.6137 86.9974 17.4881C86.9974 18.3496 86.8527 19.1719 86.5633 19.955C86.287 20.725 85.8727 21.4103 85.3202 22.0107C84.7677 22.598 84.0771 23.0679 83.2483 23.4203C82.4196 23.7727 81.4593 23.9489 80.3675 23.9489C80.2491 23.9489 80.0715 23.9424 79.8347 23.9293C79.5979 23.9293 79.348 23.9293 79.0849 23.9293C78.8218 23.9293 78.5653 23.9228 78.3154 23.9097C78.0786 23.9097 77.8879 23.9097 77.7432 23.9097H76.6974C76.6053 23.9097 76.454 23.9163 76.2435 23.9293C76.0331 23.9424 75.816 23.9554 75.5924 23.9685C75.3688 23.9815 75.1517 23.9946 74.9412 24.0076C74.7308 24.0207 74.5795 24.0272 74.4874 24.0272L74.4479 23.9489L74.5071 23.5965L74.6058 23.5182C74.7637 23.5182 74.9478 23.5116 75.1583 23.4986C75.3688 23.4725 75.5332 23.4203 75.6516 23.342C75.7568 23.2637 75.8555 23.1397 75.9476 22.97C76.0396 22.8003 76.1054 22.5458 76.1449 22.2064C76.1449 22.1151 76.1449 22.0107 76.1449 21.8932C76.158 21.7627 76.1646 21.6061 76.1646 21.4233C76.1778 21.2406 76.1843 21.0187 76.1843 20.7577C76.1843 20.4966 76.1843 20.1703 76.1843 19.7788V15.8044C76.1843 15.6739 76.1843 15.4781 76.1843 15.2171C76.1843 14.943 76.1843 14.6559 76.1843 14.3557C76.1843 14.0555 76.1778 13.7618 76.1646 13.4747C76.1646 13.1875 76.158 12.9656 76.1449 12.809ZM80.5056 22.97C81.2949 22.97 81.9921 22.8264 82.5972 22.5393C83.2023 22.2521 83.7087 21.8671 84.1165 21.3842C84.5375 20.8882 84.8532 20.3074 85.0637 19.6417C85.2873 18.9761 85.3991 18.2582 85.3991 17.4881C85.3991 16.705 85.2873 15.9806 85.0637 15.315C84.84 14.6493 84.5112 14.075 84.0771 13.5921C83.6561 13.1092 83.1365 12.7307 82.5183 12.4566C81.9 12.1825 81.1962 12.0455 80.407 12.0455H77.684C77.6577 12.424 77.6379 12.7437 77.6248 13.0048C77.6248 13.2528 77.6182 13.5073 77.605 13.7683C77.5919 14.0294 77.5853 14.3165 77.5853 14.6298C77.5853 14.93 77.5853 15.315 77.5853 15.7849V19.3872C77.5853 20.1703 77.5853 20.7838 77.5853 21.2275C77.5985 21.6583 77.6182 21.9846 77.6445 22.2064C77.684 22.5458 77.7695 22.7612 77.901 22.8525C78.0326 22.9308 78.2693 22.97 78.6114 22.97H80.5056Z" fill="white"/>
<path d="M92.1992 16.9791C92.3307 16.7311 92.4754 16.4701 92.6333 16.196C92.8043 15.9219 92.995 15.6674 93.2055 15.4325C93.416 15.1975 93.6527 15.0017 93.9158 14.8451C94.1921 14.6885 94.5012 14.6102 94.8432 14.6102C95.08 14.6102 95.3431 14.6493 95.6325 14.7276C95.9351 14.7929 96.1389 14.8843 96.2442 15.0017L96.402 15.1779L96.1653 16.6854H95.5141C95.4746 16.5027 95.3694 16.3396 95.1984 16.196C95.0406 16.0394 94.7906 15.9611 94.4486 15.9611C94.1197 15.9611 93.8172 16.059 93.5409 16.2547C93.2647 16.4375 93.0213 16.6724 92.8109 16.9595C92.6135 17.2467 92.4557 17.5534 92.3373 17.8797C92.2321 18.193 92.1794 18.4801 92.1794 18.7411V20.4836C92.1794 20.7707 92.1794 21.0057 92.1794 21.1884C92.1926 21.3581 92.1992 21.5082 92.1992 21.6387C92.2123 21.7561 92.2189 21.8606 92.2189 21.9519C92.2321 22.0302 92.2386 22.1151 92.2386 22.2064L92.2584 22.3826C92.2847 22.5784 92.311 22.7677 92.3373 22.9504C92.3768 23.1201 92.4491 23.2506 92.5543 23.342C92.6201 23.3942 92.7122 23.4333 92.8306 23.4594C92.9621 23.4855 93.0937 23.5051 93.2252 23.5182C93.3699 23.5312 93.508 23.5443 93.6396 23.5573C93.7711 23.5573 93.8764 23.5573 93.9553 23.5573L94.054 23.6552L94.0934 23.9097L94.054 23.988C93.9619 23.988 93.8106 23.9815 93.6001 23.9685C93.4028 23.9554 93.1923 23.9424 92.9687 23.9293C92.7451 23.9293 92.528 23.9228 92.3176 23.9097C92.1202 23.9097 91.9755 23.9097 91.8835 23.9097H91.4099C91.3178 23.9097 91.1731 23.9097 90.9758 23.9097C90.7916 23.9228 90.5943 23.9293 90.3838 23.9293C90.1734 23.9424 89.9695 23.9554 89.7722 23.9685C89.588 23.9815 89.4499 23.988 89.3578 23.988L89.3381 23.9097L89.3578 23.6356L89.4367 23.5573C89.6472 23.5573 89.8511 23.5508 90.0484 23.5377C90.2589 23.5116 90.4167 23.4464 90.522 23.342C90.6272 23.2506 90.693 23.1331 90.7193 22.9896C90.7587 22.846 90.7916 22.6437 90.8179 22.3826L90.8377 22.2064C90.8508 22.0759 90.8574 21.9128 90.8574 21.717C90.8706 21.5212 90.8771 21.1884 90.8771 20.7185V18.3104C90.8771 18.0363 90.8771 17.8079 90.8771 17.6252C90.8771 17.4294 90.8706 17.2597 90.8574 17.1162C90.8574 16.9726 90.8508 16.8421 90.8377 16.7246C90.8377 16.6071 90.8311 16.4831 90.8179 16.3526C90.7916 16.209 90.7522 16.0851 90.6996 15.9806C90.6469 15.8632 90.6009 15.7849 90.5614 15.7457C90.4299 15.5891 90.2655 15.4977 90.0681 15.4716C89.8708 15.4325 89.6669 15.4129 89.4565 15.4129L89.3775 15.3346V15.0605L89.4565 15.0017H89.8116C90.0352 15.0017 90.3181 15.0017 90.6601 15.0017C91.0021 14.9887 91.2981 14.9626 91.548 14.9234L92.2386 14.8255L92.357 15.0017C92.2781 15.2758 92.2189 15.5891 92.1794 15.9415C92.1531 16.2939 92.14 16.6332 92.14 16.9595L92.1992 16.9791Z" fill="white"/>
<path d="M103.004 14.6102C103.78 14.6102 104.471 14.7472 105.076 15.0213C105.681 15.2824 106.188 15.6413 106.595 16.0981C107.016 16.5419 107.332 17.0574 107.542 17.6448C107.766 18.2321 107.878 18.839 107.878 19.4655C107.878 20.0659 107.779 20.6467 107.582 21.208C107.385 21.7692 107.082 22.2652 106.674 22.6959C106.267 23.1266 105.76 23.4725 105.155 23.7335C104.55 23.9946 103.846 24.1251 103.044 24.1251C102.215 24.1251 101.491 23.988 100.873 23.7139C100.255 23.4399 99.7419 23.0809 99.3341 22.6372C98.9394 22.1934 98.6434 21.6909 98.4461 21.1297C98.2488 20.5554 98.1502 19.968 98.1502 19.3676C98.1502 18.7281 98.262 18.1212 98.4856 17.5469C98.7092 16.9726 99.0249 16.4701 99.4327 16.0394C99.8537 15.5956 100.36 15.2497 100.952 15.0017C101.557 14.7407 102.241 14.6102 103.004 14.6102ZM103.024 23.3615C103.576 23.3615 104.063 23.2506 104.484 23.0287C104.905 22.8068 105.254 22.5132 105.53 22.1477C105.806 21.7823 106.01 21.3711 106.142 20.9143C106.286 20.4444 106.359 19.9615 106.359 19.4655C106.359 18.9957 106.28 18.5193 106.122 18.0363C105.977 17.5534 105.76 17.1227 105.471 16.7442C105.181 16.3526 104.826 16.0394 104.405 15.8044C103.984 15.5564 103.497 15.4325 102.945 15.4325C102.366 15.4325 101.866 15.5499 101.445 15.7849C101.038 16.0067 100.696 16.3004 100.419 16.6659C100.156 17.0313 99.9589 17.449 99.8274 17.9189C99.6958 18.3887 99.63 18.8586 99.63 19.3285C99.63 19.8114 99.7024 20.2943 99.8471 20.7772C100.005 21.2471 100.229 21.6778 100.518 22.0694C100.807 22.4479 101.163 22.7612 101.583 23.0091C102.004 23.2441 102.485 23.3615 103.024 23.3615Z" fill="white"/>
<path d="M112.698 16.3918C113.079 15.8566 113.539 15.4259 114.079 15.0996C114.631 14.7733 115.243 14.6102 115.914 14.6102C116.664 14.6102 117.308 14.7407 117.848 15.0017C118.4 15.2628 118.854 15.6087 119.209 16.0394C119.564 16.4701 119.827 16.9661 119.998 17.5273C120.169 18.0755 120.255 18.6498 120.255 19.2502C120.255 20.1377 120.117 20.8947 119.84 21.5212C119.564 22.1347 119.209 22.6372 118.775 23.0287C118.354 23.4072 117.887 23.6878 117.374 23.8706C116.874 24.0402 116.394 24.1251 115.934 24.1251C115.302 24.1251 114.697 23.9815 114.118 23.6944C113.539 23.3942 113.046 22.9112 112.638 22.2456L112.579 22.2848C112.592 22.4675 112.605 22.6828 112.619 22.9308C112.632 23.1788 112.638 23.5377 112.638 24.0076C112.638 24.5427 112.638 24.9735 112.638 25.2998C112.638 25.6391 112.638 25.9263 112.638 26.1612C112.652 26.3961 112.658 26.605 112.658 26.7877C112.671 26.9835 112.691 27.1923 112.717 27.4142C112.744 27.6752 112.77 27.8775 112.796 28.0211C112.836 28.1647 112.908 28.2756 113.013 28.3539C113.119 28.4583 113.263 28.5236 113.447 28.5497C113.645 28.5758 113.842 28.5889 114.039 28.5889L114.138 28.6672L114.177 28.9413L114.138 29C114.046 29 113.908 28.9935 113.724 28.9804C113.539 28.9804 113.342 28.9739 113.132 28.9608C112.921 28.9608 112.724 28.9543 112.54 28.9413C112.356 28.9413 112.217 28.9413 112.125 28.9413H111.849C111.757 28.9413 111.612 28.9413 111.415 28.9413C111.231 28.9543 111.034 28.9608 110.823 28.9608C110.626 28.9739 110.428 28.9804 110.231 28.9804C110.047 28.9935 109.909 29 109.817 29L109.797 28.9413L109.817 28.6476L109.896 28.5889C110.106 28.5889 110.31 28.5758 110.507 28.5497C110.705 28.5236 110.863 28.4583 110.981 28.3539C111.086 28.2626 111.152 28.1451 111.178 28.0015C111.218 27.871 111.251 27.6752 111.277 27.4142C111.29 27.2445 111.297 27.0748 111.297 26.9052C111.31 26.7485 111.316 26.5593 111.316 26.3374C111.33 26.1155 111.336 25.8545 111.336 25.5543C111.336 25.2541 111.336 24.8886 111.336 24.4579V19.8962C111.336 19.3742 111.336 18.9369 111.336 18.5845C111.336 18.2321 111.33 17.9254 111.316 17.6643C111.316 17.4033 111.31 17.1749 111.297 16.9791C111.297 16.7703 111.29 16.5615 111.277 16.3526C111.264 16.209 111.224 16.0851 111.158 15.9806C111.106 15.8632 111.06 15.7849 111.02 15.7457C110.889 15.5891 110.724 15.4977 110.527 15.4716C110.33 15.4325 110.126 15.4129 109.915 15.4129L109.836 15.3346V15.0605L109.915 15.0017H110.271C110.494 15.0017 110.777 15.0017 111.119 15.0017C111.461 14.9887 111.757 14.9626 112.007 14.9234L112.698 14.8255L112.816 15.0017C112.79 15.0539 112.763 15.1388 112.737 15.2563C112.724 15.3607 112.704 15.4847 112.678 15.6282C112.665 15.7588 112.652 15.8958 112.638 16.0394C112.638 16.1699 112.638 16.2808 112.638 16.3722L112.698 16.3918ZM118.755 19.2893C118.755 18.8456 118.696 18.4083 118.578 17.9776C118.459 17.5469 118.275 17.1684 118.025 16.8421C117.788 16.5027 117.486 16.2352 117.118 16.0394C116.749 15.8305 116.315 15.7261 115.815 15.7261C115.315 15.7261 114.875 15.8175 114.493 16.0002C114.112 16.1829 113.783 16.4114 113.507 16.6854C113.243 16.9465 113.033 17.2206 112.875 17.5077C112.73 17.7949 112.652 18.0429 112.638 18.2517V20.4053C112.678 20.6141 112.763 20.8686 112.895 21.1688C113.026 21.469 113.217 21.7627 113.467 22.0498C113.73 22.3239 114.052 22.5588 114.434 22.7546C114.815 22.9504 115.263 23.0483 115.776 23.0483C116.289 23.0483 116.729 22.9439 117.098 22.735C117.479 22.5132 117.788 22.226 118.025 21.8736C118.275 21.5212 118.459 21.1231 118.578 20.6794C118.696 20.2225 118.755 19.7592 118.755 19.2893Z" fill="white"/>
</svg>
