<svg width="209" height="150" viewBox="0 0 209 150" fill="none" xmlns="http://www.w3.org/2000/svg">
<g clip-path="url(#clip0)">
<path d="M0 149.899H33.6182" stroke="#3F3D56" stroke-miterlimit="10"/>
<path d="M194.541 25.8347H53.1406C50.971 25.8347 49.2122 27.591 49.2122 29.7574V122.822C49.2122 124.988 50.971 126.744 53.1406 126.744H194.541C196.71 126.744 198.469 124.988 198.469 122.822V29.7574C198.469 27.591 196.71 25.8347 194.541 25.8347Z" fill="#F2F2F2"/>
<path d="M189.984 19.4646H48.5839C46.4143 19.4646 44.6555 21.2208 44.6555 23.3873V116.452C44.6555 118.618 46.4143 120.374 48.5839 120.374H189.984C192.154 120.374 193.912 118.618 193.912 116.452V23.3873C193.912 21.2208 192.154 19.4646 189.984 19.4646Z" stroke="#3F3D56" stroke-miterlimit="10"/>
<path d="M44.6555 29.1389H193.912" stroke="#3F3D56" stroke-miterlimit="10"/>
<path opacity="0.3" d="M173.135 51.8206H135.302C134.508 51.8206 133.865 52.4627 133.865 53.2548V56.6552C133.865 57.4473 134.508 58.0895 135.302 58.0895H173.135C173.929 58.0895 174.572 57.4473 174.572 56.6552V53.2548C174.572 52.4627 173.929 51.8206 173.135 51.8206Z" fill="#41A58D"/>
<path opacity="0.3" d="M180.932 69.2117H127.505C126.711 69.2117 126.068 69.8538 126.068 70.6459V72.833C126.068 73.6251 126.711 74.2673 127.505 74.2673H180.932C181.726 74.2673 182.369 73.6251 182.369 72.833V70.6459C182.369 69.8538 181.726 69.2117 180.932 69.2117Z" fill="#41A58D"/>
<path opacity="0.3" d="M180.932 82.9629H127.505C126.711 82.9629 126.068 83.605 126.068 84.3972V86.5842C126.068 87.3763 126.711 88.0185 127.505 88.0185H180.932C181.726 88.0185 182.369 87.3763 182.369 86.5842V84.3972C182.369 83.605 181.726 82.9629 180.932 82.9629Z" fill="#41A58D"/>
<path opacity="0.3" d="M180.932 96.7141H127.505C126.711 96.7141 126.068 97.3563 126.068 98.1484V100.335C126.068 101.128 126.711 101.77 127.505 101.77H180.932C181.726 101.77 182.369 101.128 182.369 100.335V98.1484C182.369 97.3563 181.726 96.7141 180.932 96.7141Z" fill="#41A58D"/>
<path d="M175.161 49.7983H137.327C136.534 49.7983 135.891 50.4405 135.891 51.2326V54.633C135.891 55.4251 136.534 56.0673 137.327 56.0673H175.161C175.954 56.0673 176.597 55.4251 176.597 54.633V51.2326C176.597 50.4405 175.954 49.7983 175.161 49.7983Z" stroke="#3F3D56" stroke-miterlimit="10"/>
<path d="M182.958 67.1895H129.53C128.737 67.1895 128.094 67.8316 128.094 68.6237V70.8108C128.094 71.6029 128.737 72.245 129.53 72.245H182.958C183.751 72.245 184.394 71.6029 184.394 70.8108V68.6237C184.394 67.8316 183.751 67.1895 182.958 67.1895Z" stroke="#3F3D56" stroke-miterlimit="10"/>
<path d="M182.958 80.9407H129.53C128.737 80.9407 128.094 81.5828 128.094 82.375V84.562C128.094 85.3541 128.737 85.9963 129.53 85.9963H182.958C183.751 85.9963 184.394 85.3541 184.394 84.562V82.375C184.394 81.5828 183.751 80.9407 182.958 80.9407Z" stroke="#3F3D56" stroke-miterlimit="10"/>
<path d="M182.958 94.6919H129.53C128.737 94.6919 128.094 95.334 128.094 96.1262V98.3132C128.094 99.1053 128.737 99.7475 129.53 99.7475H182.958C183.751 99.7475 184.394 99.1053 184.394 98.3132V96.1262C184.394 95.334 183.751 94.6919 182.958 94.6919Z" stroke="#3F3D56" stroke-miterlimit="10"/>
<path opacity="0.3" d="M55.9965 28.5648C57.6743 28.5648 59.0343 27.2067 59.0343 25.5314C59.0343 23.8561 57.6743 22.498 55.9965 22.498C54.3188 22.498 52.9587 23.8561 52.9587 25.5314C52.9587 27.2067 54.3188 28.5648 55.9965 28.5648Z" fill="#41A58D"/>
<path opacity="0.3" d="M64.5024 28.5648C66.1801 28.5648 67.5402 27.2067 67.5402 25.5314C67.5402 23.8561 66.1801 22.498 64.5024 22.498C62.8247 22.498 61.4646 23.8561 61.4646 25.5314C61.4646 27.2067 62.8247 28.5648 64.5024 28.5648Z" fill="#41A58D"/>
<path opacity="0.3" d="M73.0082 28.5648C74.686 28.5648 76.046 27.2067 76.046 25.5314C76.046 23.8561 74.686 22.498 73.0082 22.498C71.3305 22.498 69.9705 23.8561 69.9705 25.5314C69.9705 27.2067 71.3305 28.5648 73.0082 28.5648Z" fill="#41A58D"/>
<path d="M57.2116 27.3514C58.8893 27.3514 60.2494 25.9933 60.2494 24.318C60.2494 22.6427 58.8893 21.2847 57.2116 21.2847C55.5339 21.2847 54.1738 22.6427 54.1738 24.318C54.1738 25.9933 55.5339 27.3514 57.2116 27.3514Z" stroke="#3F3D56" stroke-miterlimit="10"/>
<path d="M65.7175 27.3514C67.3952 27.3514 68.7553 25.9933 68.7553 24.318C68.7553 22.6427 67.3952 21.2847 65.7175 21.2847C64.0398 21.2847 62.6797 22.6427 62.6797 24.318C62.6797 25.9933 64.0398 27.3514 65.7175 27.3514Z" stroke="#3F3D56" stroke-miterlimit="10"/>
<path d="M74.2233 27.3514C75.9011 27.3514 77.2611 25.9933 77.2611 24.318C77.2611 22.6427 75.9011 21.2847 74.2233 21.2847C72.5456 21.2847 71.1855 22.6427 71.1855 24.318C71.1855 25.9933 72.5456 27.3514 74.2233 27.3514Z" stroke="#3F3D56" stroke-miterlimit="10"/>
<path d="M91.8129 116.128C91.3043 113.788 91.1695 110.593 91.3405 108.37C91.3405 108.37 88.7689 97.0889 86.7454 96.0364L86.7448 96.037C86.7138 96.0768 85.7318 97.3623 85.6072 101.34C85.4807 105.381 84.0479 108.033 84.0479 108.033C84.0479 108.033 84.5115 113.07 84.2464 116.128L91.8129 116.128Z" fill="#41A58D"/>
<path d="M110.521 44.3381H63.8487C63.2164 44.3381 62.5904 44.4625 62.0063 44.7041C61.4222 44.9456 60.8915 45.2997 60.4445 45.7461C59.9974 46.1925 59.6428 46.7225 59.4009 47.3057C59.1589 47.8889 59.0344 48.514 59.0344 49.1453V111.32C59.0344 111.952 59.1589 112.577 59.4009 113.16C59.6428 113.743 59.9974 114.273 60.4445 114.72C60.8915 115.166 61.4222 115.52 62.0063 115.762C62.5904 116.003 63.2164 116.128 63.8487 116.128H80.2234C79.6765 113.863 78.9967 110.326 79.6852 107.866L79.6849 107.865L79.6853 107.866C79.7175 107.751 79.7516 107.638 79.7898 107.528C80.2628 105.932 80.4204 104.259 80.254 102.603C80.558 101.188 80.558 99.7244 80.254 98.3093C79.7481 95.9523 79.394 93.6369 79.394 93.6369C79.394 93.6369 79.1151 90.5222 79.3586 88.6128C79.364 88.5709 79.3703 88.5311 79.3762 88.4904C79.2902 88.4709 79.242 88.4596 79.242 88.4596C79.242 88.4596 79.9587 85.2184 80.2116 83.1558C80.2713 82.6688 80.3499 82.0516 80.435 81.3934C80.2015 81.3547 79.9717 81.2965 79.7479 81.2195C77.4715 80.4197 76.7549 73.1795 76.7549 73.1795V70.8854C76.7549 70.8854 75.9961 67.3706 78.6519 65.8131C81.2093 64.3134 82.2303 63.9029 82.3025 63.8745C82.322 63.8606 82.341 63.848 82.3609 63.8326C82.6499 63.6061 82.8787 63.3121 83.0271 62.9765C83.0307 62.9187 83.0315 62.8612 83.0296 62.8041C82.9864 61.9818 82.4131 61.2339 81.8691 60.5813C81.4051 60.0247 80.9411 59.4681 80.4771 58.9114C80.3181 58.7456 80.196 58.5482 80.1186 58.3321C80.0892 58.2128 80.0765 58.0901 80.0807 57.9673C80.0803 57.9219 80.0806 57.8765 80.0815 57.8312C80.0891 57.4162 80.1004 57.0013 80.1154 56.5864C80.1284 56.224 80.2198 55.7667 80.5753 55.6922C80.7601 55.6535 81.0048 55.721 81.1025 55.5596C81.1353 55.4931 81.1437 55.4172 81.1262 55.3452C81.125 55.3505 81.1247 55.3562 81.1232 55.3614C81.122 55.3547 81.1208 55.3479 81.1196 55.3412C81.0464 55.0506 81.0023 54.7535 80.9878 54.4542C80.9839 54.3191 81.0032 54.1844 81.0449 54.0559C81.2508 53.4542 81.9599 53.2073 82.5864 53.0938C83.2129 52.9803 83.9162 52.8827 84.3095 52.3826C84.4147 52.2165 84.5289 52.0563 84.6515 51.9025C84.8319 51.7388 85.0535 51.6272 85.2926 51.5796C86.0704 51.3831 86.8919 51.4559 87.6229 51.7862C87.9259 51.9242 88.2304 52.1102 88.5628 52.0892C88.9081 52.0673 89.2031 51.8246 89.544 51.7656C90.0947 51.6702 90.6212 52.0822 90.8925 52.5701C91.0649 52.8804 91.1511 53.2311 91.1422 53.5859C91.1487 53.9391 91.0211 54.2816 90.785 54.5447C90.548 54.7957 90.1944 54.9681 90.096 55.2989C90.0559 55.4335 90.0652 55.5784 90.0297 55.7143C90.0253 55.7313 90.0181 55.7472 90.0123 55.7636C90.0188 55.772 90.0259 55.78 90.0323 55.7885C90.4469 56.334 90.7247 56.9705 90.8427 57.645C90.9607 58.3196 90.9154 59.0125 90.7106 59.666C90.5059 60.3195 90.1475 60.9146 89.6655 61.4016C89.1835 61.8887 88.5919 62.2535 87.9399 62.4658C87.9383 62.5083 87.9366 62.551 87.9368 62.5938C87.9246 62.8591 87.9697 63.124 88.0689 63.3705C88.1681 63.617 88.3192 63.8393 88.5119 64.0224L92.2681 65.5605C92.2681 65.5605 94.5293 65.2869 95.3453 68.6565C95.4762 69.2166 95.5232 69.7929 95.485 70.3668C95.4554 70.8749 95.5245 71.7694 96.1042 72.927C97.0316 74.7791 96.8208 79.0305 94.9238 79.4515C93.127 79.8502 92.4281 79.6827 92.3592 79.6639L92.3551 79.7383C92.3847 80.5361 92.669 87.4165 93.7013 88.2491C93.9868 88.4793 93.9323 88.6348 93.698 88.7396L93.6986 88.7403C93.6986 88.7403 93.7005 88.7845 93.7049 88.8641C93.7359 89.3673 93.8953 91.2836 94.5864 92.3741C95.3875 93.6369 95.3035 100.92 95.3035 100.92L95.851 105.213C95.851 105.213 95.514 107.865 95.851 108.328C96.0425 108.59 96.2744 112.656 96.4394 116.128H110.521C111.797 116.128 113.022 115.621 113.925 114.72C114.828 113.818 115.335 112.595 115.335 111.32V49.1453C115.335 48.514 115.21 47.8889 114.968 47.3057C114.726 46.7225 114.372 46.1925 113.925 45.7461C113.478 45.2997 112.947 44.9456 112.363 44.7041C111.779 44.4625 111.153 44.3381 110.521 44.3381Z" fill="#41A58D"/>
<path d="M105.66 38.8782H58.988C56.3292 38.8782 54.1738 41.0304 54.1738 43.6854V105.86C54.1738 108.515 56.3292 110.668 58.988 110.668H105.66C108.319 110.668 110.474 108.515 110.474 105.86V43.6854C110.474 41.0304 108.319 38.8782 105.66 38.8782Z" stroke="#3F3D56" stroke-miterlimit="10"/>
<path d="M20.4189 65.0415C20.4189 65.0415 18.5306 64.4839 18.1256 65.0906C17.7205 65.6973 18.6778 70.0952 18.6778 70.0952L22.8387 70.3477L21.3866 66.6861L20.4189 65.0415Z" fill="#2F2E41"/>
<path d="M5.86184 101.156C5.86184 101.156 9.64788 109.456 6.7322 109.195C3.81652 108.935 2.68506 101.156 2.68506 101.156H5.86184Z" fill="#A0616A"/>
<path d="M30.6232 100.292C30.6232 100.292 28.9623 109.26 31.728 108.302C34.4937 107.344 33.7055 99.5237 33.7055 99.5237L30.6232 100.292Z" fill="#A0616A"/>
<path d="M19.6134 62.9603C19.6134 62.9603 19.5699 67.1319 21.1801 67.3492C22.7902 67.5665 20.2662 69.7826 20.2662 69.7826L17.394 70.3475L13.2599 70.0434L11.4321 67.6968C11.4321 67.6968 14.6524 66.176 13.2599 61.4395L19.6134 62.9603Z" fill="#A0616A"/>
<path opacity="0.1" d="M19.6134 62.9603C19.6134 62.9603 19.5699 67.1319 21.1801 67.3492C22.7902 67.5665 20.2662 69.7826 20.2662 69.7826L17.394 70.3475L13.2599 70.0434L11.4321 67.6968C11.4321 67.6968 14.6524 66.176 13.2599 61.4395L19.6134 62.9603Z" fill="black"/>
<path d="M27.0114 98.245C27.0114 98.245 29.0567 102.634 27.4466 116.409C27.4466 116.409 27.9253 121.276 27.5336 122.188C27.142 123.101 23.9216 135.485 23.9216 135.485C23.9216 135.485 19.7875 136.398 19.2217 133.66C19.2217 133.66 19.7875 129.749 19.744 129.141C19.7004 128.533 20.6578 121.884 20.6578 121.884L18.6995 109.022L17.2199 120.624C17.2199 120.624 17.2199 123.97 16.7412 124.709C16.2625 125.447 16.7412 140.309 16.7412 140.309C16.7412 140.309 18.0903 142.568 16.0449 142.612C13.9996 142.655 12.1719 142.568 11.9978 141.134C11.8237 139.7 11.7367 138.266 11.3015 137.397C10.8663 136.528 10.3006 126.577 10.4312 123.101C10.5617 119.624 7.559 101.765 8.51639 99.8963C9.47377 98.0278 27.0114 98.245 27.0114 98.245Z" fill="#2F2E41"/>
<path d="M17.3937 64.5247C20.2778 64.5247 22.6159 62.1901 22.6159 59.3102C22.6159 56.4303 20.2778 54.0957 17.3937 54.0957C14.5097 54.0957 12.1716 56.4303 12.1716 59.3102C12.1716 62.1901 14.5097 64.5247 17.3937 64.5247Z" fill="#A0616A"/>
<path d="M12.1717 67.7837C12.1717 67.7837 15.3485 70.1302 19.9614 68.2617C19.9614 68.2617 21.4845 67.523 21.3539 66.3932C21.2234 65.2634 24.5307 75.4751 24.5307 75.4751L27.8816 93.2478L27.7075 100.505C27.7075 100.505 26.2279 99.7659 21.615 101.417C17.0022 103.068 9.47363 99.5487 9.47363 99.5487L9.73474 80.9069L9.99584 70.0433L10.6921 67.6534C10.6921 67.6534 11.0403 67.0016 12.1717 67.7837Z" fill="#F2F2F2"/>
<path d="M19.7585 64.8666C19.7585 64.8666 20.5273 64.7419 21.2671 65.9152C22.0069 67.0884 23.7476 67.8272 23.7476 67.8272C23.7476 67.8272 27.9688 68.0879 28.578 70.3475C29.1873 72.6071 30.7104 75.6924 31.4502 81.3848C32.19 87.0773 33.6696 96.1592 33.8872 96.8979C34.1048 97.6367 33.5826 99.8963 34.1918 100.592C34.8011 101.287 29.8836 101.287 29.8836 101.287C29.8836 101.287 29.4484 97.7236 29.1438 97.7236C28.8391 97.7236 28.9262 100.114 29.2308 101.852C29.5354 103.59 27.0114 101.852 27.0114 101.852C27.0114 101.852 25.0531 93.8996 23.1819 86.7297C21.3106 79.5598 20.2227 75.6054 20.5708 73.9976C20.9189 72.3898 21.8763 67.7837 21.18 67.3492C20.4838 66.9146 19.7585 64.8666 19.7585 64.8666Z" fill="#2F2E41"/>
<path d="M13.4827 64.8628C13.4827 64.8628 12.3458 65.4807 9.47363 67.523C6.60146 69.5653 4.64318 71.1297 4.64318 71.1297C4.64318 71.1297 3.51172 71.9988 2.81544 77.1698C2.11916 82.3408 0.552522 95.7247 1.16177 97.4194C1.77102 99.1141 1.98861 100.114 1.77102 101.113C1.55343 102.112 6.34037 102.069 6.4274 101.852C6.51444 101.634 6.29685 97.6801 6.51444 97.5932C6.73203 97.5063 7.907 99.9398 8.12459 101.982C8.34218 104.024 10.8662 105.632 11.4319 105.632C11.9977 105.632 14.9133 93.8562 14.9569 85.8172C15.0004 77.7782 13.9995 70.9993 13.2597 70.0433C12.5199 69.0873 13.4827 64.8628 13.4827 64.8628Z" fill="#2F2E41"/>
<path d="M21.1364 135.876C21.1364 135.876 21.4845 134.92 22.703 135.225C23.9215 135.529 24.7484 134.442 24.7484 134.442C24.7484 134.442 25.4011 134.356 24.966 135.181C24.5308 136.007 24.1826 136.572 24.1826 136.572C24.1826 136.572 26.7937 142.525 25.0965 143.959C23.3993 145.393 21.441 144.524 21.441 144.524C21.441 144.524 19.5263 143.177 19.6133 139.614C19.6133 139.614 19.5263 138.484 18.4818 136.659C17.4374 134.834 16.6541 132.052 17.9161 131.531C19.1781 131.01 19.5029 130.99 19.5029 130.99C19.5029 130.99 18.9124 133.687 20.4378 134.63L21.1364 135.876Z" fill="#3F3D56"/>
<path d="M13.042 142.612C13.042 142.612 11.9976 140.656 13.7383 140.439C15.479 140.222 17.3502 140.091 17.2632 141.004C17.1762 141.917 16.9586 143.307 16.9586 143.307L17.2632 144.307C17.2632 144.307 17.3502 146.783 17.6549 147.088C17.9595 147.392 19.6132 149.999 16.0882 149.999C12.5633 149.999 11.5189 149.608 11.8235 148.782C12.1281 147.957 12.2152 143.872 12.2152 143.872L13.042 142.612Z" fill="#3F3D56"/>
<path d="M15.7404 55.1386C15.7404 55.1386 18.1774 55.7904 19.4394 56.0511C20.7014 56.3119 20.5708 55.5731 20.5708 55.5731C20.5708 55.5731 22.2245 55.7904 22.1375 55.6166C22.0504 55.4428 22.8337 54.5303 21.9199 53.4874C21.006 52.4445 21.2671 51.6623 21.2671 51.6623H20.4838L20.2662 51.3581H19.0477C19.0477 51.3581 18.1338 51.0105 15.7404 51.3581C13.3469 51.7057 10.0831 51.7927 9.82197 53.2266C9.56086 54.6606 8.21182 56.4422 8.69051 57.2679C9.16921 58.0935 11.9108 61.4829 12.1719 62.9169C12.433 64.3509 13.6522 64.6695 13.6083 63.7714C13.5645 62.8734 12.346 59.7447 13.3904 59.6144C14.4348 59.484 16.2191 56.8333 15.7404 55.1386Z" fill="#2F2E41"/>
<path d="M189.331 1.50806C188.468 1.55675 187.635 1.8446 186.927 2.33934C186.218 2.83408 185.662 3.51614 185.319 4.30906C184.316 6.73045 185.608 9.57473 187.547 11.3404C189.486 13.1061 191.977 14.1154 194.24 15.442C197.28 17.2239 200.011 19.6974 201.532 22.8725C203.053 26.0476 203.215 29.9807 201.427 33.014C199.768 35.8294 196.75 37.5145 193.872 39.0685" stroke="#3F3D56" stroke-miterlimit="10"/>
<path d="M191.887 3.4378C193.844 3.4378 195.431 2.66822 195.431 1.7189C195.431 0.769578 193.844 0 191.887 0C189.93 0 188.343 0.769578 188.343 1.7189C188.343 2.66822 189.93 3.4378 191.887 3.4378Z" fill="#41A58D"/>
<path d="M194.722 14.7623C196.68 14.7623 198.266 13.9927 198.266 13.0434C198.266 12.094 196.68 11.3245 194.722 11.3245C192.765 11.3245 191.178 12.094 191.178 13.0434C191.178 13.9927 192.765 14.7623 194.722 14.7623Z" fill="#41A58D"/>
<path d="M188.242 16.5823C190.199 16.5823 191.786 15.8128 191.786 14.8634C191.786 13.9141 190.199 13.1445 188.242 13.1445C186.284 13.1445 184.698 13.9141 184.698 14.8634C184.698 15.8128 186.284 16.5823 188.242 16.5823Z" fill="#41A58D"/>
<path d="M198.368 26.0867C200.325 26.0867 201.912 25.3172 201.912 24.3678C201.912 23.4185 200.325 22.6489 198.368 22.6489C196.41 22.6489 194.824 23.4185 194.824 24.3678C194.824 25.3172 196.41 26.0867 198.368 26.0867Z" fill="#41A58D"/>
<path d="M205.456 26.0867C207.413 26.0867 209 25.3172 209 24.3678C209 23.4185 207.413 22.6489 205.456 22.6489C203.499 22.6489 201.912 23.4185 201.912 24.3678C201.912 25.3172 203.499 26.0867 205.456 26.0867Z" fill="#41A58D"/>
</g>
<defs>
<clipPath id="clip0">
<rect width="209" height="150" fill="white"/>
</clipPath>
</defs>
</svg>
