<svg width="23" height="22" viewBox="0 0 23 22" fill="none" xmlns="http://www.w3.org/2000/svg">
<path fill-rule="evenodd" clip-rule="evenodd" d="M12.0527 11.1383L20.9276 2.0035L20.2611 1.25799L11.3116 10.4697L1.86746 1.94921L1.25034 2.73608L10.6159 11.1857L1.63574 20.4289L2.30224 21.1744L11.3571 11.8544L21.5085 21.013L22.1256 20.2261L12.0527 11.1383Z" fill="#606060"/>
<path d="M20.9276 2.0035L21.2862 2.35191C21.4692 2.16363 21.4753 1.86595 21.3004 1.67025L20.9276 2.0035ZM12.0527 11.1383L11.6941 10.7899C11.5995 10.8873 11.5485 11.019 11.553 11.1548C11.5574 11.2905 11.6169 11.4186 11.7178 11.5096L12.0527 11.1383ZM20.2611 1.25799L20.6339 0.924744C20.5414 0.821334 20.4102 0.760977 20.2715 0.758102C20.1328 0.755226 19.9992 0.810091 19.9025 0.90958L20.2611 1.25799ZM11.3116 10.4697L10.9766 10.8409C11.1763 11.0211 11.4828 11.011 11.6702 10.8181L11.3116 10.4697ZM1.86746 1.94921L2.20239 1.57797C2.09949 1.48513 1.96267 1.43917 1.82459 1.45105C1.68651 1.46293 1.55956 1.5316 1.47403 1.64065L1.86746 1.94921ZM1.25034 2.73608L0.856904 2.42751C0.694739 2.63428 0.720298 2.93129 0.915403 3.10732L1.25034 2.73608ZM10.6159 11.1857L10.9745 11.5341C11.0692 11.4367 11.1201 11.305 11.1156 11.1692C11.1112 11.0335 11.0517 10.9054 10.9508 10.8145L10.6159 11.1857ZM1.63574 20.4289L1.27712 20.0805C1.09419 20.2688 1.08802 20.5664 1.26298 20.7621L1.63574 20.4289ZM2.30224 21.1744L1.92948 21.5076C2.02193 21.6111 2.15319 21.6714 2.29187 21.6743C2.43055 21.6772 2.5642 21.6223 2.66086 21.5228L2.30224 21.1744ZM11.3571 11.8544L11.692 11.4831C11.4923 11.303 11.1859 11.313 10.9984 11.5059L11.3571 11.8544ZM21.5085 21.013L21.1736 21.3842C21.2765 21.4771 21.4133 21.523 21.5514 21.5112C21.6895 21.4993 21.8164 21.4306 21.902 21.3216L21.5085 21.013ZM22.1256 20.2261L22.5191 20.5347C22.6812 20.3279 22.6557 20.0309 22.4606 19.8549L22.1256 20.2261ZM20.569 1.65509L11.6941 10.7899L12.4113 11.4868L21.2862 2.35191L20.569 1.65509ZM19.8884 1.59124L20.5549 2.33675L21.3004 1.67025L20.6339 0.924744L19.8884 1.59124ZM11.6702 10.8181L20.6197 1.60641L19.9025 0.90958L10.9529 10.1213L11.6702 10.8181ZM1.53253 2.32045L10.9766 10.8409L11.6465 10.0984L2.20239 1.57797L1.53253 2.32045ZM1.64377 3.04464L2.26089 2.25777L1.47403 1.64065L0.856904 2.42751L1.64377 3.04464ZM10.9508 10.8145L1.58527 2.36484L0.915403 3.10732L10.281 11.5569L10.9508 10.8145ZM1.99436 20.7773L10.9745 11.5341L10.2573 10.8373L1.27712 20.0805L1.99436 20.7773ZM2.67499 20.8411L2.00849 20.0956L1.26298 20.7621L1.92948 21.5076L2.67499 20.8411ZM10.9984 11.5059L1.94362 20.826L2.66086 21.5228L11.7157 12.2028L10.9984 11.5059ZM21.8435 20.6418L11.692 11.4831L11.0221 12.2256L21.1736 21.3842L21.8435 20.6418ZM21.7322 19.9176L21.1151 20.7044L21.902 21.3216L22.5191 20.5347L21.7322 19.9176ZM11.7178 11.5096L21.7907 20.5974L22.4606 19.8549L12.3876 10.7671L11.7178 11.5096Z" fill="#606060"/>
</svg>
