<svg width="217" height="178" viewBox="0 0 217 178" fill="none" xmlns="http://www.w3.org/2000/svg">
<path d="M198.639 171.154C198.639 157.668 196.099 144.314 191.162 131.855C186.226 119.396 178.99 108.075 169.869 98.5393C160.748 89.0034 149.919 81.4392 138.001 76.2784C126.084 71.1176 113.311 68.4614 100.411 68.4614C87.5115 68.4614 74.7383 71.1176 62.8207 76.2784C50.9031 81.4392 40.0745 89.0034 30.9532 98.5393C21.8319 108.075 14.5964 119.396 9.66001 131.855C4.72358 144.314 2.18283 157.668 2.18283 171.154L100.411 171.154H198.639Z" fill="#E8F0FF"/>
<path d="M172.676 118.667C183.587 99.2634 202.136 58.3623 189.043 49.984C172.676 39.5111 156.309 95.0418 172.676 118.667Z" fill="#688C92"/>
<path d="M170.775 136.446C188.04 122.933 220.388 92.6375 211.665 79.5622C200.761 63.2181 164.854 107.935 170.775 136.446Z" fill="#5E8D93"/>
<path d="M85.8588 51.2566V18.0326C85.8588 18.0326 82.3861 10.6495 76.5982 10.6495C70.8104 10.6495 67.3377 15.5716 67.3377 20.4937V43.8735C67.3377 43.8735 65.0225 51.2566 60.3922 52.4871L85.8588 51.2566Z" fill="#1A3245"/>
<path d="M85.8588 51.2566V18.0326C85.8588 18.0326 82.3861 10.6495 76.5982 10.6495C70.8104 10.6495 67.3377 15.5716 67.3377 20.4937V43.8735C67.3377 43.8735 65.0225 51.2566 60.3922 52.4871L85.8588 51.2566Z" stroke="black" stroke-width="0.5" stroke-miterlimit="10"/>
<path d="M42.9294 24.3418H69.1236V51.7195H56.5959C56.5959 51.7195 49.7627 52.1548 48.6238 46.1085V31.5974C48.6238 31.5974 46.346 25.5511 42.9294 24.3418Z" fill="#1A3245"/>
<path d="M157.236 92.8035C157.236 92.8035 215.778 136.69 214.63 145.111C213.482 153.532 211.187 167.968 185.933 165.562C160.679 163.156 59.6647 165.562 59.6647 165.562L64.2563 154.735L83.7705 148.708L157.236 92.8035Z" fill="#E9F8B7"/>
<path d="M157.521 121.709L196.742 153.852C196.742 153.852 205.97 169.632 189.82 169.632C173.671 169.632 69.851 169.632 69.851 169.632L79.0795 157.494L157.521 121.709Z" fill="#65709E"/>
<path d="M157.521 121.709L196.742 153.852C196.742 153.852 205.97 169.632 189.82 169.632C173.671 169.632 69.851 169.632 69.851 169.632L79.0795 157.494L157.521 121.709Z" stroke="black" stroke-width="0.5" stroke-miterlimit="10"/>
<path d="M71.9491 57.821C71.9491 57.821 49.7572 87.67 56.6136 120.259C63.47 152.848 84.0393 99.7399 84.0393 99.7399L158.317 70.7721L166.316 73.1861L173.173 30.9413C173.173 30.9413 173.173 22.4923 161.745 23.6993C150.318 24.9063 88.6102 41.8042 88.6102 41.8042C88.6102 41.8042 72.4291 58.1469 71.9491 57.821Z" fill="#18314F"/>
<path d="M75.672 11.7112C75.672 11.7112 83.7343 12.9158 83.7343 20.1434C83.7343 27.371 83.7343 162.287 83.7343 162.287C83.7343 162.287 88.3413 170.719 95.2518 169.514C102.162 168.31 173.571 169.514 173.571 169.514C173.571 169.514 175.875 165.9 177.026 161.082C178.178 156.264 177.026 145.422 177.026 145.422H157.447V23.7572C157.447 23.7572 158.598 15.325 149.384 12.9158C140.17 10.5066 75.672 11.7112 75.672 11.7112Z" fill="#F8FFEE"/>
<path d="M157.846 141.487V23.6405C157.846 23.6405 159.003 15.2057 149.747 12.7958C146.612 11.9884 137.089 11.5787 125.878 11.41" stroke="black" stroke-width="0.5" stroke-miterlimit="10"/>
<path d="M176.811 145.29H105.652C105.652 145.29 105.549 170.912 92.4075 169.582" stroke="black" stroke-width="0.5" stroke-miterlimit="10"/>
<path d="M65.4854 104.214L83.6758 89.7607" stroke="black" stroke-width="0.5" stroke-miterlimit="10"/>
<path d="M64.7576 41.0768L73.3001 62.7973C73.3001 62.7973 81.37 67.7648 83.6757 56.5879L72.1473 41.6854L64.7576 41.0768Z" fill="white" stroke="black" stroke-width="0.5" stroke-miterlimit="10"/>
<path d="M163.391 77.8414C162.871 79.6285 162.085 81.4866 160.501 82.5281C159.243 83.3566 157.658 83.5341 156.147 83.6169C153.849 83.7353 151.539 83.6761 149.253 83.4157C148.83 83.3684 148.394 83.3092 148.056 83.0489C147.729 82.7885 147.572 82.2677 147.85 81.96C148.068 81.7115 148.455 81.6878 148.781 81.6878C149.93 81.676 151.091 81.6642 152.24 81.6523C150.922 81.1197 149.592 80.5872 148.273 80.0546C149.737 79.4747 151.381 79.309 152.93 79.6167C152.809 79.238 152.373 79.0486 151.974 78.9776C151.575 78.9066 151.14 78.8948 150.801 78.6817C150.462 78.4687 150.293 77.9243 150.607 77.6757C150.837 77.4982 151.176 77.5692 151.466 77.6521C152.458 77.9361 153.438 78.2202 154.429 78.5042C154.212 77.8059 152.893 77.6402 153.038 76.9183C153.099 76.6343 153.413 76.4567 153.704 76.4449C153.994 76.4331 154.284 76.5396 154.562 76.6461C155.385 76.9775 156.207 77.297 157.03 77.6284C157.017 75.0365 157.453 72.4328 158.336 69.983C159.485 70.3854 160.622 70.7759 161.771 71.1783C162.484 71.4268 164.637 71.7701 165.06 72.3618C165.483 72.9417 164.552 74.1371 164.335 74.7288C163.947 75.723 163.706 76.7881 163.391 77.8414Z" fill="white" stroke="black" stroke-width="0.5" stroke-miterlimit="10"/>
<path d="M66.9406 153.658L50.2054 157.537V166.59L66.9406 165.296V153.658Z" fill="white" stroke="black" stroke-width="0.5" stroke-miterlimit="10"/>
<path d="M80.0378 157.461L61.1198 161.112V169.632L80.0378 168.415V157.461Z" fill="white" stroke="black" stroke-width="0.5" stroke-miterlimit="10"/>
<path d="M157.893 98.8888L171.718 133.88L157.893 120.469V98.8888Z" fill="black"/>
<path d="M157.893 92.8035C157.893 92.8035 208.239 132.48 211.958 139.032C215.677 145.585 217.484 148.153 211.432 157.07C205.379 165.987 198.776 165.039 198.776 165.039" stroke="black" stroke-width="0.5" stroke-miterlimit="10"/>
<path d="M69.1238 45.463L80.038 51.7266L73.2284 43.3591L69.1238 45.463Z" fill="black"/>
<path d="M66.5685 31.8691C66.5685 31.8691 63.1138 34.3242 64.2654 39.2345C65.4169 44.1447 71.1746 47.8274 74.6293 44.1447C78.0839 40.462 72.3262 28.1864 66.5685 31.8691Z" fill="white" stroke="black" stroke-width="0.5" stroke-miterlimit="10"/>
<path d="M66.5654 31.9014C66.5654 31.9014 63.8027 33.9541 64.0455 38.034L73.4894 34.4386C71.7324 31.7867 69.1431 30.1802 66.5654 31.9014Z" fill="#F6C68C"/>
<path d="M105.504 146.051C105.504 146.051 89.0426 167.179 89.5063 167.685C89.97 168.19 93.216 171.694 97.8531 167.859C102.49 164.025 104.809 159.951 105.504 146.051Z" fill="black"/>
<path d="M84.6066 82.7691C84.7601 81.8671 84.9489 80.9176 85.5626 80.2411C86.5068 79.2085 88.1002 79.2085 89.4221 78.7219C90.1302 78.4608 90.7794 78.0336 91.4875 77.7843C92.2075 77.5351 93.0455 77.4757 93.671 77.903C94.2965 78.3303 94.4854 79.3866 93.8952 79.8613C95.0991 80.7158 95.2643 82.4249 95.3116 83.8966C95.347 85.0953 95.2643 86.5314 94.2375 87.1248C93.3523 87.6351 92.2193 87.2435 91.2515 87.5402C90.3073 87.8369 89.6699 88.7389 89.3277 89.6765C88.9854 90.6141 88.891 91.6229 88.5841 92.5724C87.8759 94.8036 86.0465 96.6551 83.8277 97.3672C83.7805 94.7918 83.9103 92.157 83.6978 89.5934C83.509 87.2791 84.6066 85.0715 84.6066 82.7691Z" fill="white" stroke="black" stroke-width="0.5" stroke-miterlimit="10"/>
<path d="M83.676 133.88L157.893 99.6493" stroke="#4A5B2D" stroke-width="0.5" stroke-miterlimit="10"/>
<path d="M134.609 31.9489H124.422V42.5984H134.609V31.9489Z" stroke="#4A5B2D" stroke-width="0.5" stroke-miterlimit="10"/>
<path d="M130.971 36.5126H128.788V42.598H130.971V36.5126Z" stroke="#4A5B2D" stroke-width="0.5" stroke-miterlimit="10"/>
<path d="M143.341 25.1023H134.609V42.598H143.341V25.1023Z" stroke="#4A5B2D" stroke-width="0.5" stroke-miterlimit="10"/>
<path d="M85.131 50.9659L155.71 52.4872" stroke="#4A5B2D" stroke-width="0.5" stroke-miterlimit="10"/>
<path d="M58.3666 9.9431C53.109 4.11193 45.7302 0.499273 38.1461 0.0385983C34.873 -0.15537 31.3262 0.329551 28.9198 2.69354C26.3766 5.203 25.7151 9.33695 26.5134 12.9254C27.4828 17.229 30.2883 20.8902 33.6527 23.4966C37.0171 26.1031 40.9289 27.7882 44.8521 29.2793C48.5814 30.6977 66.9087 38.7838 67.6272 32.8314C67.9807 29.934 65.9621 24.2604 65.0497 21.5327C63.6127 17.229 61.3432 13.2406 58.3666 9.9431Z" fill="#F6C68C"/>
<path d="M101.138 104.974H84.4033V121.709H101.138V104.974Z" stroke="black" stroke-width="0.5" stroke-miterlimit="10"/>
<path d="M130.243 68.4614H114.236V79.111H130.243V68.4614Z" stroke="#4A5B2D" stroke-width="0.5" stroke-miterlimit="10"/>
<path d="M157.893 127.034H128.06V134.641H157.893V127.034Z" stroke="black" stroke-width="0.5" stroke-miterlimit="10"/>
<path d="M44.7368 157.134C44.8958 162.88 44.7709 168.638 44.3847 174.36C44.9071 175.273 45.8612 175.061 46.4404 174.247C47.0196 173.433 47.3149 172.206 47.5988 171.042C47.8828 169.878 48.2121 168.663 48.8254 167.925C49.1434 167.549 49.5182 167.299 49.7567 166.786C50.0293 166.197 50.0407 165.396 50.0407 164.657C50.0407 162.967 50.5972 157.922 49.6659 156.871C49.2229 156.37 44.7368 157.134 44.7368 157.134Z" fill="black"/>
<path d="M55.6509 160.919C55.8099 166.426 55.685 171.945 55.2988 177.428C55.8213 178.303 56.7753 178.099 57.3545 177.32C57.9337 176.54 58.229 175.364 58.513 174.248C58.7969 173.133 59.1263 171.969 59.7396 171.261C60.0576 170.901 60.4324 170.661 60.6709 170.169C60.9434 169.605 60.9548 168.837 60.9548 168.13C60.9548 166.51 61.5113 161.675 60.58 160.667C60.1371 160.187 55.6509 160.919 55.6509 160.919Z" fill="black"/>
<path d="M95.1078 51.4806C95.1078 51.4806 87.6529 41.3713 94.7303 39.0311C101.808 36.691 97.8561 52.4869 97.8561 52.4869" stroke="#4A5B2D" stroke-width="0.5" stroke-miterlimit="10"/>
<path d="M26.1941 6.84601C34.2602 8.09781 41.4678 12.652 48.4494 17.0988C51.8724 19.2805 55.3067 21.4742 58.3456 24.2162C61.3846 26.9582 64.0281 30.2964 65.4854 34.2306" stroke="black" stroke-width="0.5" stroke-miterlimit="10"/>
<path d="M31.2875 1.52179C39.1181 4.16972 47.0526 6.88921 53.8898 11.6364C60.7271 16.3836 66.421 23.5401 67.6684 31.9491" stroke="black" stroke-width="0.5" stroke-miterlimit="10"/>
<path d="M87.3141 104.974C87.5456 109.733 87.8102 114.492 88.0417 119.251V122.47" stroke="black" stroke-width="0.5" stroke-miterlimit="10"/>
<path d="M90.2245 104.214C90.456 108.973 90.7206 113.732 90.9521 118.491V121.709" stroke="black" stroke-width="0.5" stroke-miterlimit="10"/>
<path d="M93.8623 104.214C93.8623 108.766 93.8623 113.318 93.8623 117.87V120.949" stroke="black" stroke-width="0.5" stroke-miterlimit="10"/>
<path d="M96.7732 104.214C96.7732 108.766 96.7732 113.318 96.7732 117.87V120.949" stroke="black" stroke-width="0.5" stroke-miterlimit="10"/>
<path d="M141.885 52.4869L122.24 115.624" stroke="#4A5B2D" stroke-width="0.5" stroke-miterlimit="10"/>
<path d="M146.251 93.4701C146.251 98.4595 137.519 108.778 137.519 108.778C137.519 108.778 128.788 98.4595 128.788 93.4701C128.788 88.4807 132.697 84.436 137.519 84.436C142.342 84.436 146.251 88.4807 146.251 93.4701Z" fill="#F6C68C"/>
<path d="M141.385 93.184C141.385 95.1986 139.675 96.8678 137.52 96.8678C135.364 96.8678 133.654 95.1986 133.654 93.184C133.654 91.1694 135.364 89.5002 137.52 89.5002C139.675 89.5002 141.385 91.1694 141.385 93.184Z" stroke="white"/>
<path d="M192.806 57.0514C192.956 62.7213 191.817 77.3644 186.065 90.5778C180.313 103.791 179.474 109.231 179.774 110.299" stroke="black"/>
<rect x="0.68695" y="0.0805987" width="37.1744" height="10.0887" transform="matrix(0.77111 -0.636702 0.60279 0.7979 8.54853 126.389)" fill="white" stroke="black"/>
<rect x="0.68695" y="0.0805987" width="37.1744" height="10.0887" transform="matrix(0.77111 -0.636702 0.60279 0.7979 0.108652 126.389)" fill="#E2EFCD" stroke="black"/>
</svg>
