<svg width="432" height="356" viewBox="0 0 432 356" fill="none" xmlns="http://www.w3.org/2000/svg">
<path d="M396.821 341.913C396.821 314.973 391.746 288.296 381.884 263.406C372.023 238.517 357.568 215.901 339.347 196.852C321.125 177.802 299.493 162.691 275.685 152.381C251.877 142.071 226.36 136.765 200.591 136.765C174.822 136.765 149.305 142.071 125.497 152.381C101.689 162.691 80.057 177.802 61.8353 196.852C43.6137 215.901 29.1595 238.517 19.298 263.406C9.43648 288.296 4.36084 314.973 4.36084 341.913L200.591 341.913H396.821Z" fill="#E8F0FF"/>
<path d="M344.954 237.06C366.751 198.298 403.806 116.59 377.65 99.8526C344.954 78.9309 312.258 189.864 344.954 237.06Z" fill="#688C92"/>
<path d="M341.157 272.578C375.646 245.582 440.268 185.062 422.842 158.941C401.06 126.29 329.328 215.621 341.157 272.578Z" fill="#5E8D93"/>
<path d="M171.52 102.395V36.0241C171.52 36.0241 164.583 21.2749 153.02 21.2749C141.458 21.2749 134.52 31.1077 134.52 40.9405V87.6463C134.52 87.6463 129.895 102.395 120.646 104.854L171.52 102.395Z" fill="#1A3245"/>
<path d="M171.52 102.395V36.0241C171.52 36.0241 164.583 21.2749 153.02 21.2749C141.458 21.2749 134.52 31.1077 134.52 40.9405V87.6463C134.52 87.6463 129.895 102.395 120.646 104.854L171.52 102.395Z" stroke="black" stroke-width="0.5" stroke-miterlimit="10"/>
<path d="M85.7598 48.6279H138.088V103.32H113.061C113.061 103.32 99.4106 104.19 97.1354 92.1112V63.1224C97.1354 63.1224 92.5852 51.0437 85.7598 48.6279Z" fill="#1A3245"/>
<path d="M314.109 185.393C314.109 185.393 431.059 273.064 428.766 289.887C426.473 306.71 421.887 335.55 371.438 330.743C320.988 325.936 119.192 330.743 119.192 330.743L128.364 309.114L167.348 297.073L314.109 185.393Z" fill="#E9F8B7"/>
<path d="M314.679 243.138L393.03 307.349C393.03 307.349 411.466 338.873 379.204 338.873C346.941 338.873 139.541 338.873 139.541 338.873L157.977 314.624L314.679 243.138Z" fill="#65709E"/>
<path d="M314.679 243.138L393.03 307.349C393.03 307.349 411.466 338.873 379.204 338.873C346.941 338.873 139.541 338.873 139.541 338.873L157.977 314.624L314.679 243.138Z" stroke="black" stroke-width="0.5" stroke-miterlimit="10"/>
<path d="M143.732 115.509C143.732 115.509 99.3997 175.138 113.097 240.241C126.794 305.343 167.885 199.25 167.885 199.25L316.269 141.381L332.249 146.204L345.946 61.8114C345.946 61.8114 345.946 44.933 323.118 47.3442C300.29 49.7554 177.016 83.5123 177.016 83.5123C177.016 83.5123 144.691 116.16 143.732 115.509Z" fill="#18314F"/>
<path d="M151.17 23.3956C151.17 23.3956 167.276 25.802 167.276 40.2406C167.276 54.6792 167.276 324.2 167.276 324.2C167.276 324.2 176.479 341.045 190.284 338.638C204.09 336.232 346.743 338.638 346.743 338.638C346.743 338.638 351.344 331.419 353.645 321.793C355.946 312.168 353.645 290.51 353.645 290.51H314.531V47.4599C314.531 47.4599 316.832 30.6149 298.425 25.802C280.018 20.9891 151.17 23.3956 151.17 23.3956Z" fill="#F8FFEE"/>
<path d="M315.329 282.648V47.2267C315.329 47.2267 317.641 30.3765 299.15 25.5622C292.886 23.9494 273.863 23.1309 251.465 22.7939" stroke="black" stroke-width="0.5" stroke-miterlimit="10"/>
<path d="M353.215 290.246H211.061C211.061 290.246 210.855 341.43 184.602 338.774" stroke="black" stroke-width="0.5" stroke-miterlimit="10"/>
<path d="M130.82 208.187L167.159 179.314" stroke="black" stroke-width="0.5" stroke-miterlimit="10"/>
<path d="M129.366 82.0591L146.432 125.45C146.432 125.45 162.553 135.373 167.159 113.045L144.129 83.2747L129.366 82.0591Z" fill="white" stroke="black" stroke-width="0.5" stroke-miterlimit="10"/>
<path d="M326.406 155.504C325.367 159.074 323.796 162.786 320.631 164.867C318.119 166.522 314.953 166.876 311.933 167.042C307.343 167.278 302.728 167.16 298.162 166.64C297.316 166.545 296.446 166.427 295.77 165.907C295.117 165.387 294.803 164.346 295.359 163.732C295.794 163.235 296.567 163.188 297.219 163.188C299.515 163.164 301.834 163.141 304.129 163.117C301.496 162.053 298.838 160.989 296.205 159.925C299.128 158.767 302.414 158.436 305.507 159.05C305.265 158.294 304.395 157.916 303.598 157.774C302.801 157.632 301.931 157.608 301.254 157.183C300.578 156.757 300.24 155.669 300.868 155.173C301.327 154.818 302.003 154.96 302.583 155.126C304.564 155.693 306.521 156.261 308.503 156.828C308.068 155.433 305.434 155.102 305.724 153.66C305.845 153.092 306.473 152.738 307.053 152.714C307.633 152.691 308.213 152.903 308.768 153.116C310.411 153.778 312.054 154.416 313.697 155.078C313.673 149.901 314.543 144.699 316.306 139.805C318.602 140.609 320.873 141.389 323.168 142.193C324.594 142.69 328.894 143.375 329.74 144.557C330.586 145.716 328.725 148.104 328.29 149.286C327.517 151.272 327.034 153.4 326.406 155.504Z" fill="white" stroke="black" stroke-width="0.5" stroke-miterlimit="10"/>
<path d="M133.727 306.962L100.295 314.712V332.795L133.727 330.212V306.962Z" fill="white" stroke="black" stroke-width="0.5" stroke-miterlimit="10"/>
<path d="M159.891 314.56L122.099 321.854V338.873L159.891 336.442V314.56Z" fill="white" stroke="black" stroke-width="0.5" stroke-miterlimit="10"/>
<path d="M315.422 197.55L343.039 267.452L315.422 240.661V197.55Z" fill="black"/>
<path d="M315.422 185.393C315.422 185.393 415.998 264.654 423.427 277.744C430.856 290.835 434.468 295.965 422.376 313.779C410.284 331.592 397.094 329.698 397.094 329.698" stroke="black" stroke-width="0.5" stroke-miterlimit="10"/>
<path d="M138.088 90.8211L159.891 103.334L146.288 86.6182L138.088 90.8211Z" fill="black"/>
<path d="M132.983 63.6647C132.983 63.6647 126.082 68.5693 128.383 78.3785C130.683 88.1877 142.185 95.5446 149.087 88.1877C155.988 80.8308 144.486 56.3078 132.983 63.6647Z" fill="white" stroke="black" stroke-width="0.5" stroke-miterlimit="10"/>
<path d="M132.977 63.7293C132.977 63.7293 127.458 67.8299 127.943 75.9802L146.809 68.7978C143.299 63.5001 138.127 60.2909 132.977 63.7293Z" fill="#F6C68C"/>
<path d="M210.765 291.766C210.765 291.766 177.88 333.974 178.806 334.984C179.733 335.994 186.217 342.992 195.481 335.332C204.744 327.672 209.376 319.533 210.765 291.766Z" fill="black"/>
<path d="M169.018 165.347C169.325 163.545 169.702 161.649 170.928 160.297C172.814 158.234 175.997 158.234 178.638 157.262C180.053 156.741 181.35 155.887 182.764 155.389C184.202 154.891 185.877 154.773 187.126 155.626C188.376 156.48 188.753 158.59 187.574 159.538C189.979 161.245 190.309 164.66 190.403 167.6C190.474 169.994 190.309 172.863 188.258 174.049C186.49 175.068 184.226 174.286 182.293 174.878C180.406 175.471 179.133 177.273 178.449 179.146C177.766 181.019 177.577 183.035 176.964 184.931C175.549 189.389 171.895 193.087 167.462 194.51C167.368 189.365 167.627 184.101 167.203 178.98C166.826 174.357 169.018 169.947 169.018 165.347Z" fill="white" stroke="black" stroke-width="0.5" stroke-miterlimit="10"/>
<path d="M167.159 267.451L315.422 199.069" stroke="#4A5B2D" stroke-width="0.5" stroke-miterlimit="10"/>
<path d="M268.908 63.8242H248.558V85.0988H268.908V63.8242Z" stroke="#4A5B2D" stroke-width="0.5" stroke-miterlimit="10"/>
<path d="M261.64 72.9409H257.279V85.0978H261.64V72.9409Z" stroke="#4A5B2D" stroke-width="0.5" stroke-miterlimit="10"/>
<path d="M286.351 50.147H268.908V85.0981H286.351V50.147Z" stroke="#4A5B2D" stroke-width="0.5" stroke-miterlimit="10"/>
<path d="M170.066 101.814L311.061 104.854" stroke="#4A5B2D" stroke-width="0.5" stroke-miterlimit="10"/>
<path d="M116.599 19.8633C106.096 8.21439 91.3554 0.997396 76.2046 0.0771078C69.6659 -0.310382 62.5804 0.658343 57.7732 5.38087C52.6926 10.394 51.3711 18.6524 52.966 25.821C54.9025 34.4184 60.5071 41.7323 67.2281 46.9392C73.9491 52.146 81.7637 55.5124 89.6011 58.4912C97.0511 61.3247 133.663 77.4782 135.099 65.5871C135.805 59.799 131.772 48.4649 129.95 43.0158C127.079 34.4184 122.545 26.4506 116.599 19.8633Z" fill="#F6C68C"/>
<path d="M202.044 209.706H168.612V243.138H202.044V209.706Z" stroke="black" stroke-width="0.5" stroke-miterlimit="10"/>
<path d="M260.186 136.765H228.208V158.04H260.186V136.765Z" stroke="#4A5B2D" stroke-width="0.5" stroke-miterlimit="10"/>
<path d="M315.422 253.775H255.826V268.971H315.422V253.775Z" stroke="black" stroke-width="0.5" stroke-miterlimit="10"/>
<path d="M89.3703 313.905C89.688 325.384 89.4384 336.889 88.667 348.318C89.7107 350.143 91.6165 349.718 92.7736 348.093C93.9307 346.467 94.5206 344.016 95.0879 341.69C95.6551 339.364 96.313 336.939 97.5382 335.463C98.1735 334.713 98.9222 334.213 99.3987 333.187C99.9432 332.012 99.9659 330.411 99.9659 328.936C99.9659 325.559 101.078 315.481 99.2172 313.38C98.3323 312.38 89.3703 313.905 89.3703 313.905Z" fill="black"/>
<path d="M111.174 321.468C111.491 332.469 111.242 343.494 110.47 354.446C111.514 356.196 113.42 355.789 114.577 354.231C115.734 352.673 116.324 350.324 116.891 348.095C117.458 345.866 118.116 343.541 119.341 342.127C119.977 341.408 120.725 340.929 121.202 339.946C121.746 338.82 121.769 337.286 121.769 335.872C121.769 332.636 122.881 322.978 121.02 320.965C120.136 320.006 111.174 321.468 111.174 321.468Z" fill="black"/>
<path d="M189.997 102.843C189.997 102.843 175.104 82.6474 189.242 77.9725C203.381 73.2976 195.487 104.853 195.487 104.853" stroke="#4A5B2D" stroke-width="0.5" stroke-miterlimit="10"/>
<path d="M52.3281 13.6758C68.4418 16.1765 82.8403 25.2743 96.7874 34.1578C103.626 38.5162 110.486 42.8984 116.557 48.3762C122.628 53.8539 127.909 60.5225 130.82 68.3819" stroke="black" stroke-width="0.5" stroke-miterlimit="10"/>
<path d="M62.5029 3.03955C78.146 8.32931 93.9967 13.762 107.655 23.2455C121.314 32.7289 132.689 47.0255 135.181 63.8241" stroke="black" stroke-width="0.5" stroke-miterlimit="10"/>
<path d="M174.427 209.706C174.889 219.213 175.418 228.721 175.88 238.228V244.657" stroke="black" stroke-width="0.5" stroke-miterlimit="10"/>
<path d="M180.241 208.187C180.704 217.694 181.232 227.202 181.695 236.709V243.138" stroke="black" stroke-width="0.5" stroke-miterlimit="10"/>
<path d="M187.509 208.187C187.509 217.281 187.509 226.375 187.509 235.469V241.619" stroke="black" stroke-width="0.5" stroke-miterlimit="10"/>
<path d="M193.323 208.187C193.323 217.281 193.323 226.375 193.323 235.469V241.619" stroke="black" stroke-width="0.5" stroke-miterlimit="10"/>
<path d="M283.443 104.853L244.197 230.981" stroke="#4A5B2D" stroke-width="0.5" stroke-miterlimit="10"/>
<path d="M292.165 186.725C292.165 196.692 274.722 217.305 274.722 217.305C274.722 217.305 257.279 196.692 257.279 186.725C257.279 176.757 265.089 168.677 274.722 168.677C284.355 168.677 292.165 176.757 292.165 186.725Z" fill="#F6C68C"/>
<path d="M282.944 186.153C282.944 190.473 279.283 194.011 274.722 194.011C270.162 194.011 266.501 190.473 266.501 186.153C266.501 181.833 270.162 178.295 274.722 178.295C279.283 178.295 282.944 181.833 282.944 186.153Z" stroke="white"/>
<path d="M385.167 113.971C385.467 125.298 383.192 154.551 371.701 180.947C360.211 207.343 358.535 218.21 359.133 220.344" stroke="black"/>
<rect x="0.68695" y="0.0805987" width="75.2608" height="21.1518" transform="matrix(0.77111 -0.636702 0.60279 0.7979 16.969 252.034)" fill="white" stroke="black"/>
<rect x="0.68695" y="0.0805987" width="75.2608" height="21.1518" transform="matrix(0.77111 -0.636702 0.60279 0.7979 0.108652 252.034)" fill="#E2EFCD" stroke="black"/>
</svg>
