<svg width="57" height="54" viewBox="0 0 57 54" fill="none" xmlns="http://www.w3.org/2000/svg">
<path d="M47.4258 52.9839H9.57422C6.99901 52.9839 4.90312 50.8881 4.90312 48.3128V21.3691C4.90312 20.634 5.49911 20.0379 6.23438 20.0379C6.96964 20.0379 7.56562 20.634 7.56562 21.3691V48.3128C7.56562 49.4208 8.46624 50.3214 9.57422 50.3214H47.4258C48.5338 50.3214 49.4344 49.4208 49.4344 48.3128V21.3691C49.4344 20.634 50.0304 20.0379 50.7656 20.0379C51.5009 20.0379 52.0969 20.634 52.0969 21.3691V48.3128C52.0969 50.888 50.0011 52.9839 47.4258 52.9839Z" fill="black" stroke="white" stroke-width="0.9"/>
<path d="M54.2775 26.7629L54.2775 26.7628L32.1244 4.60996C30.1257 2.61111 26.8744 2.61112 24.8756 4.60996L2.72259 26.7629L2.72256 26.7629C2.20273 27.2829 1.35983 27.2829 0.839991 26.7629L0.83994 26.7629C0.32002 26.2431 0.32002 25.4002 0.83994 24.8803L0.839966 24.8803L22.9929 2.72723C26.0292 -0.309079 30.9708 -0.309071 34.007 2.72722L56.16 24.8802C56.6799 25.4002 56.6799 26.243 56.16 26.7628L56.1599 26.7629C55.9 27.0229 55.5602 27.1528 55.2187 27.1528C54.8773 27.1528 54.5375 27.0229 54.2775 26.7629Z" fill="black" stroke="white" stroke-width="0.9"/>
<path d="M34.32 33.666C34.32 34.854 33.902 35.8513 33.066 36.658C32.23 37.45 31.1227 37.934 29.744 38.11V40.552H27.896V38.154C25.8427 38.022 24.1707 37.384 22.88 36.24L23.694 34.546C24.3833 35.1033 25.0727 35.5213 25.762 35.8C26.4513 36.0787 27.1993 36.2473 28.006 36.306V31.18C26.994 30.916 26.1507 30.6373 25.476 30.344C24.816 30.0507 24.2587 29.618 23.804 29.046C23.364 28.4593 23.144 27.6967 23.144 26.758C23.144 25.966 23.342 25.2473 23.738 24.602C24.1487 23.942 24.7133 23.4067 25.432 22.996C26.1507 22.5707 26.972 22.3067 27.896 22.204V19.784H29.744V22.204C30.6093 22.3067 31.416 22.5193 32.164 22.842C32.9267 23.1647 33.572 23.5753 34.1 24.074L33.286 25.768C32.2007 24.8 30.9907 24.2353 29.656 24.074V29.486C30.624 29.7207 31.4233 29.9847 32.054 30.278C32.6993 30.5567 33.2347 30.9673 33.66 31.51C34.1 32.0527 34.32 32.7713 34.32 33.666ZM25.432 26.648C25.432 27.2933 25.652 27.7993 26.092 28.166C26.5467 28.518 27.1847 28.8113 28.006 29.046V24.052C27.1993 24.1693 26.5687 24.4553 26.114 24.91C25.6593 25.3647 25.432 25.944 25.432 26.648ZM29.656 36.24C30.4187 36.108 31.0053 35.8293 31.416 35.404C31.8267 34.964 32.032 34.4067 32.032 33.732C32.032 33.1893 31.8267 32.7567 31.416 32.434C31.02 32.1113 30.4333 31.8327 29.656 31.598V36.24Z" fill="#41A58D"/>
</svg>
