<svg width="69" height="57" viewBox="0 0 69 57" fill="none" xmlns="http://www.w3.org/2000/svg">
<path d="M48.8451 30.6636L49.0666 31.0989L49.5378 30.9704C50.3291 30.7546 51.16 30.6374 52.018 30.6374H58.726C63.9297 30.6374 68.1642 34.872 68.1642 40.0757V50.799C68.1642 53.7886 65.731 56.2219 62.7413 56.2219H6.25929C3.2696 56.2219 0.836328 53.7886 0.836328 50.799V40.0757C0.836328 34.872 5.07087 30.6374 10.2746 30.6374H16.9826C17.8406 30.6374 18.6714 30.7546 19.4628 30.9704L19.934 31.0989L20.1554 30.6636C21.7169 27.594 24.9033 25.4882 28.5717 25.4882H40.4289C44.0972 25.4882 47.2837 27.594 48.8451 30.6636ZM18.5334 53.4067H19.1334V52.8067V34.9267C19.1334 34.7212 19.1425 34.5143 19.1565 34.3027L19.1887 33.8128L18.7149 33.6842C18.1628 33.5343 17.5822 33.4529 16.9826 33.4529H10.2746C6.62216 33.4529 3.65163 36.4234 3.65163 40.0758V50.7991C3.65163 52.2375 4.8209 53.4067 6.25929 53.4067H18.5334ZM46.4518 53.4067H47.0518V52.8067V34.9266C47.0518 31.2742 44.0813 28.3036 40.4289 28.3036H28.5717C24.9192 28.3036 21.9487 31.2742 21.9487 34.9266V52.8067V53.4067H22.5487H46.4518ZM49.8671 52.8067V53.4067H50.4671H62.7413C64.1797 53.4067 65.3489 52.2375 65.3489 50.7991V40.0757C65.3489 36.4233 62.3784 33.4527 58.726 33.4527H52.018C51.4183 33.4527 50.8378 33.5343 50.2858 33.684L49.8118 33.8126L49.8441 34.3025C49.858 34.514 49.8671 34.7209 49.8671 34.9266V52.8067Z" fill="black" stroke="white" stroke-width="1.2"/>
<path d="M5.3085 19.9993V19.9992C5.3085 15.412 9.04139 11.6791 13.6286 11.6791C18.2159 11.6791 21.9488 15.412 21.9488 19.9992C21.9488 24.5865 18.2158 28.3194 13.6286 28.3194C9.04137 28.3194 5.30837 24.5865 5.3085 19.9993ZM8.12367 19.9992C8.12367 23.0352 10.5926 25.5041 13.6285 25.5041C16.6644 25.5041 19.1333 23.0352 19.1333 19.9992C19.1333 16.9633 16.6644 14.4944 13.6285 14.4944C10.5926 14.4944 8.12367 16.9633 8.12367 19.9992Z" fill="black" stroke="white" stroke-width="1.2"/>
<path d="M23.083 11.9172C23.083 5.62212 28.2051 0.5 34.5002 0.5C40.7952 0.5 45.9173 5.62225 45.9173 11.9172C45.9173 18.2122 40.7952 23.3343 34.5002 23.3343C28.2051 23.3343 23.083 18.2122 23.083 11.9172ZM26.0983 11.9172C26.0983 16.5504 29.8669 20.319 34.5002 20.319C39.1335 20.319 42.902 16.5504 42.902 11.9172C42.902 7.28388 39.1335 3.51531 34.5002 3.51531C29.8669 3.51531 26.0983 7.28402 26.0983 11.9172Z" fill="#41A58D" stroke="white"/>
<path d="M55.3718 28.3194C50.7847 28.3194 47.0518 24.5865 47.0517 19.9992V19.9992C47.0517 15.412 50.7847 11.6791 55.3718 11.6791C59.959 11.6791 63.6919 15.412 63.6919 19.9992C63.6919 24.5865 59.959 28.3194 55.3718 28.3194ZM49.867 19.9992V19.9992C49.867 23.0352 52.336 25.5041 55.3718 25.5041C58.4077 25.5041 60.8766 23.0352 60.8766 19.9992C60.8766 16.9633 58.4077 14.4944 55.3718 14.4944C52.336 14.4944 49.8671 16.9633 49.867 19.9992Z" fill="black" stroke="white" stroke-width="1.2"/>
</svg>
