<svg width="30" height="30" viewBox="0 0 30 30" fill="none" xmlns="http://www.w3.org/2000/svg">
<path d="M15.225 14.4713C16.3888 14.4713 17.3966 14.0539 18.22 13.2304C19.0434 12.4069 19.4608 11.3995 19.4608 10.2355C19.4608 9.07199 19.0434 8.06436 18.2199 7.24068C17.3963 6.41741 16.3887 6 15.225 6C14.0611 6 13.0536 6.41741 12.2302 7.24082C11.4068 8.06422 10.9893 9.07185 10.9893 10.2355C10.9893 11.3995 11.4068 12.4071 12.2303 13.2305C13.0539 14.0538 14.0615 14.4713 15.225 14.4713Z" fill="white"/>
<path d="M22.6366 19.5232C22.6129 19.1805 22.5648 18.8067 22.4941 18.412C22.4227 18.0143 22.3308 17.6383 22.2208 17.2947C22.1072 16.9396 21.9526 16.5889 21.7615 16.2528C21.5632 15.9039 21.3303 15.6002 21.069 15.3502C20.7956 15.0887 20.461 14.8784 20.0741 14.7251C19.6885 14.5725 19.2611 14.4953 18.804 14.4953C18.6245 14.4953 18.4509 14.5689 18.1156 14.7872C17.9092 14.9218 17.6678 15.0774 17.3984 15.2496C17.1681 15.3963 16.856 15.5339 16.4705 15.6584C16.0944 15.7801 15.7126 15.8418 15.3357 15.8418C14.9588 15.8418 14.5771 15.7801 14.2006 15.6584C13.8155 15.534 13.5034 15.3965 13.2733 15.2497C13.0065 15.0792 12.765 14.9235 12.5555 14.7871C12.2206 14.5688 12.0469 14.4951 11.8674 14.4951C11.4101 14.4951 10.9829 14.5725 10.5974 14.7252C10.2107 14.8783 9.87598 15.0886 9.60241 15.3503C9.34118 15.6004 9.10812 15.904 8.91008 16.2528C8.71916 16.5889 8.56459 16.9394 8.45082 17.2949C8.34093 17.6385 8.24902 18.0143 8.17764 18.412C8.10693 18.8062 8.0589 19.1801 8.03515 19.5236C8.01181 19.8601 8 20.2093 8 20.5621C8 21.4801 8.29182 22.2232 8.86728 22.7713C9.43563 23.3122 10.1877 23.5866 11.1022 23.5866H19.57C20.4845 23.5866 21.2363 23.3123 21.8047 22.7713C22.3803 22.2236 22.6722 21.4803 22.6722 20.5619C22.672 20.2076 22.6601 19.8581 22.6366 19.5232Z" fill="white"/>
<path d="M10.9999 7.5C9.99986 8.5 9.39986 10.7 10.9999 13.5" stroke="white"/>
</svg>
