<svg width="20" height="20" viewBox="0 0 20 20" fill="none" xmlns="http://www.w3.org/2000/svg">
<path d="M10.8583 1.41L1.7 0.018335C1.275 -0.0483317 0.841667 0.0683349 0.516667 0.343335C0.191667 0.626668 0 1.035 0 1.46V19.0183C0 19.4767 0.375 19.8517 0.833333 19.8517H3.54167V15.4767C3.54167 14.6683 4.19167 14.0183 5 14.0183H7.08333C7.89167 14.0183 8.54167 14.6683 8.54167 15.4767V19.8517H12.0833V2.85167C12.0833 2.135 11.5667 1.52667 10.8583 1.41Z" fill="white"/>
<path d="M18.8498 8.88679L12.9165 7.64429V19.8518H18.5415C19.3457 19.8518 19.9998 19.1976 19.9998 18.3935V10.3118C19.9998 9.62345 19.5307 9.03762 18.8498 8.88679Z" fill="white"/>
<path d="M13 5.5L19 7.5" stroke="white"/>
<rect x="2" y="3" width="8" height="2" rx="1" fill="white"/>
<rect x="2" y="7" width="8" height="2" rx="1" fill="white"/>
</svg>
