<svg width="19" height="17" viewBox="0 0 19 17" fill="none" xmlns="http://www.w3.org/2000/svg">
<path d="M9.44787 6.62133C11.2763 6.62133 12.7585 5.1391 12.7585 3.31067C12.7585 1.48224 11.2763 0 9.44787 0C7.61944 0 6.13721 1.48224 6.13721 3.31067C6.13721 5.1391 7.61944 6.62133 9.44787 6.62133Z" fill="white"/>
<path d="M15.8517 6.62132C17.0076 6.62132 17.9447 5.68428 17.9447 4.52837C17.9447 3.37247 17.0076 2.43542 15.8517 2.43542C14.6958 2.43542 13.7588 3.37247 13.7588 4.52837C13.7588 5.68428 14.6958 6.62132 15.8517 6.62132Z" fill="white"/>
<path d="M3.04412 6.62132C4.20003 6.62132 5.13707 5.68428 5.13707 4.52837C5.13707 3.37247 4.20003 2.43542 3.04412 2.43542C1.88822 2.43542 0.951172 3.37247 0.951172 4.52837C0.951172 5.68428 1.88822 6.62132 3.04412 6.62132Z" fill="white"/>
<path d="M5.10642 8.23666C4.28256 7.56166 3.53644 7.65101 2.58384 7.65101C1.15911 7.65101 0 8.80327 0 10.2192V14.3751C0 14.99 0.501927 15.4901 1.11916 15.4901C3.7839 15.4901 3.46288 15.5383 3.46288 15.3751C3.46288 12.4303 3.11408 10.2707 5.10642 8.23666Z" fill="white"/>
<path d="M10.1808 7.66624C8.51691 7.52746 7.07069 7.66784 5.82325 8.69749C3.73574 10.3696 4.13748 12.6209 4.13748 15.3751C4.13748 16.1038 4.73035 16.7078 5.47011 16.7078C13.5025 16.7078 13.8222 16.9669 14.2986 15.9121C14.4548 15.5554 14.412 15.6687 14.412 12.2563C14.412 9.54586 12.0651 7.66624 10.1808 7.66624Z" fill="white"/>
<path d="M15.9401 7.65098C14.9822 7.65098 14.2402 7.56254 13.4175 8.23662C15.3949 10.2556 15.061 12.2678 15.061 15.3751C15.061 15.5393 14.7945 15.49 17.3648 15.49C18.0041 15.49 18.5239 14.9721 18.5239 14.3355V10.2192C18.5239 8.80324 17.3648 7.65098 15.9401 7.65098Z" fill="white"/>
</svg>
