<svg width="30" height="30" viewBox="0 0 30 30" fill="none" xmlns="http://www.w3.org/2000/svg">
<path d="M15.225 14.4713C16.3888 14.4713 17.3966 14.0539 18.22 13.2304C19.0434 12.4069 19.4608 11.3995 19.4608 10.2355C19.4608 9.07199 19.0434 8.06436 18.2199 7.24068C17.3963 6.41741 16.3887 6 15.225 6C14.0611 6 13.0536 6.41741 12.2302 7.24082C11.4068 8.06422 10.9893 9.07185 10.9893 10.2355C10.9893 11.3995 11.4068 12.4071 12.2303 13.2305C13.0539 14.0538 14.0615 14.4713 15.225 14.4713Z" fill="#5E8D93"/>
<path d="M22.6366 19.5229C22.6129 19.1803 22.5648 18.8065 22.4941 18.4117C22.4227 18.0141 22.3308 17.6381 22.2208 17.2945C22.1072 16.9393 21.9526 16.5886 21.7615 16.2525C21.5632 15.9037 21.3303 15.5999 21.069 15.3499C20.7956 15.0884 20.461 14.8782 20.0741 14.7248C19.6885 14.5723 19.2611 14.495 18.804 14.495C18.6245 14.495 18.4509 14.5687 18.1156 14.787C17.9092 14.9215 17.6678 15.0772 17.3984 15.2493C17.1681 15.3961 16.856 15.5336 16.4705 15.6581C16.0944 15.7798 15.7126 15.8415 15.3357 15.8415C14.9588 15.8415 14.5771 15.7798 14.2006 15.6581C13.8155 15.5338 13.5034 15.3962 13.2733 15.2495C13.0065 15.0789 12.765 14.9233 12.5555 14.7868C12.2206 14.5685 12.0469 14.4949 11.8674 14.4949C11.4101 14.4949 10.9829 14.5723 10.5974 14.725C10.2107 14.8781 9.87598 15.0883 9.60241 15.3501C9.34118 15.6002 9.10812 15.9038 8.91008 16.2525C8.71916 16.5886 8.56459 16.9392 8.45082 17.2946C8.34093 17.6382 8.24902 18.0141 8.17764 18.4117C8.10693 18.8059 8.0589 19.1799 8.03515 19.5233C8.01181 19.8598 8 20.2091 8 20.5618C8 21.4798 8.29182 22.223 8.86728 22.7711C9.43563 23.3119 10.1877 23.5863 11.1022 23.5863H19.57C20.4845 23.5863 21.2363 23.3121 21.8047 22.7711C22.3803 22.2234 22.6722 21.4801 22.6722 20.5617C22.672 20.2073 22.6601 19.8578 22.6366 19.5229Z" fill="#5E8D93"/>
<path d="M10.9999 7.5C9.99986 8.5 9.39986 10.7 10.9999 13.5" stroke="#FF6889"/>
</svg>
