<svg width="19" height="19" viewBox="0 0 19 19" fill="none" xmlns="http://www.w3.org/2000/svg">
<path d="M9.5 6.7168C7.96542 6.7168 6.7168 7.96542 6.7168 9.5C6.7168 11.0346 7.96542 12.2832 9.5 12.2832C11.0346 12.2832 12.2832 11.0346 12.2832 9.5C12.2832 7.96542 11.0346 6.7168 9.5 6.7168Z" fill="#FF6889"/>
<path d="M19 11.0699V7.93012L16.4243 7.42295C16.2835 6.95493 16.0965 6.50372 15.8638 6.07429L17.3011 3.91838L15.0816 1.69887L12.9257 3.13611C12.4962 2.90344 12.0451 2.71644 11.577 2.57565L11.0699 0H7.93012L7.42295 2.57569C6.95493 2.71648 6.50372 2.90347 6.07429 3.13615L3.91838 1.69887L1.69887 3.91838L3.13611 6.07429C2.90344 6.50372 2.71644 6.95489 2.57565 7.42295L0 7.93009V11.0699L2.57569 11.577C2.71648 12.0451 2.90347 12.4963 3.13615 12.9257L1.69887 15.0816L3.91838 17.3011L6.07429 15.8639C6.50372 16.0966 6.95489 16.2836 7.42295 16.4243L7.93009 19H11.0699L11.577 16.4243C12.0451 16.2835 12.4963 16.0965 12.9257 15.8638L15.0816 17.3011L17.3011 15.0816L15.8639 12.9257C16.0966 12.4962 16.2836 12.0451 16.4243 11.577L19 11.0699ZM9.5 13.3965C7.3517 13.3965 5.60352 11.6483 5.60352 9.5C5.60352 7.3517 7.3517 5.60352 9.5 5.60352C11.6483 5.60352 13.3965 7.3517 13.3965 9.5C13.3965 11.6483 11.6483 13.3965 9.5 13.3965Z" fill="#5E8D93"/>
</svg>
