<svg width="20" height="19" viewBox="0 0 20 19" fill="none" xmlns="http://www.w3.org/2000/svg">
<path d="M19.654 8.44134L10.6853 0.269061C10.2916 -0.0896999 9.69798 -0.0896608 9.30447 0.269022L0.335688 8.44138C0.0203428 8.72873 -0.0838223 9.17147 0.070239 9.56927C0.224339 9.96707 0.599537 10.2241 1.02615 10.2241H2.45862V18.4121C2.45862 18.7367 2.72184 19 3.04648 19H7.96246C8.2871 19 8.55033 18.7368 8.55033 18.4121V13.4406H11.4395V18.4121C11.4395 18.7368 11.7028 19 12.0274 19H16.9432C17.2678 19 17.531 18.7368 17.531 18.4121V10.2241H18.9638C19.3903 10.2241 19.7656 9.96703 19.9197 9.56927C20.0735 9.17143 19.9694 8.72873 19.654 8.44134Z" fill="#5E8D93"/>
<path d="M17.3776 1.17334H13.4297L17.9655 5.29762V1.76116C17.9655 1.43652 17.7023 1.17334 17.3776 1.17334Z" fill="#FF6889"/>
</svg>
