<svg width="19" height="17" viewBox="0 0 19 17" fill="none" xmlns="http://www.w3.org/2000/svg">
<path d="M9.44787 6.62133C11.2763 6.62133 12.7585 5.1391 12.7585 3.31067C12.7585 1.48224 11.2763 0 9.44787 0C7.61944 0 6.13721 1.48224 6.13721 3.31067C6.13721 5.1391 7.61944 6.62133 9.44787 6.62133Z" fill="#5E8D93"/>
<path d="M15.8517 6.6212C17.0076 6.6212 17.9447 5.68416 17.9447 4.52825C17.9447 3.37235 17.0076 2.4353 15.8517 2.4353C14.6958 2.4353 13.7588 3.37235 13.7588 4.52825C13.7588 5.68416 14.6958 6.6212 15.8517 6.6212Z" fill="#5E8D93"/>
<path d="M3.04412 6.6212C4.20003 6.6212 5.13707 5.68416 5.13707 4.52825C5.13707 3.37235 4.20003 2.4353 3.04412 2.4353C1.88822 2.4353 0.951172 3.37235 0.951172 4.52825C0.951172 5.68416 1.88822 6.6212 3.04412 6.6212Z" fill="#FF6889"/>
<path d="M5.10642 8.23678C4.28256 7.56178 3.53644 7.65113 2.58384 7.65113C1.15911 7.65113 0 8.8034 0 10.2194V14.3752C0 14.9902 0.501927 15.4902 1.11916 15.4902C3.7839 15.4902 3.46288 15.5384 3.46288 15.3753C3.46288 12.4304 3.11408 10.2709 5.10642 8.23678Z" fill="#5E8D93"/>
<path d="M10.1808 7.66624C8.51691 7.52746 7.07069 7.66784 5.82325 8.69749C3.73574 10.3696 4.13748 12.6209 4.13748 15.3751C4.13748 16.1038 4.73035 16.7078 5.47011 16.7078C13.5025 16.7078 13.8222 16.9669 14.2986 15.9121C14.4548 15.5554 14.412 15.6687 14.412 12.2563C14.412 9.54586 12.0651 7.66624 10.1808 7.66624Z" fill="#5E8D93"/>
<path d="M15.9401 7.65104C14.9822 7.65104 14.2402 7.5626 13.4175 8.23668C15.3949 10.2557 15.061 12.2679 15.061 15.3752C15.061 15.5393 14.7945 15.4901 17.3648 15.4901C18.0041 15.4901 18.5239 14.9722 18.5239 14.3355V10.2193C18.5239 8.8033 17.3648 7.65104 15.9401 7.65104Z" fill="#5E8D93"/>
</svg>
